<svg xmlns="http://www.w3.org/2000/svg" xmlns:xlink="http://www.w3.org/1999/xlink" width="1920" zoomAndPan="magnify" viewBox="0 0 1440 809.999993" height="1080" preserveAspectRatio="xMidYMid meet" version="1.0"><defs><filter x="0%" y="0%" width="100%" height="100%" id="45c537e34c"><feColorMatrix values="0 0 0 0 1 0 0 0 0 1 0 0 0 0 1 0 0 0 1 0" color-interpolation-filters="sRGB"/></filter><g/><clipPath id="88ada99479"><path d="M 1079.75 0 L 1440 0 L 1440 576 L 1079.75 576 Z M 1079.75 0 " clip-rule="nonzero"/></clipPath><clipPath id="e161ac4abc"><path d="M 1079.996094 215.996094 C 1079.996094 17.171875 1241.171875 -144.003906 1439.996094 -144.003906 C 1638.824219 -144.003906 1799.996094 17.171875 1799.996094 215.996094 C 1799.996094 414.824219 1638.824219 575.996094 1439.996094 575.996094 C 1241.171875 575.996094 1079.996094 414.824219 1079.996094 215.996094 Z M 1079.996094 215.996094 " clip-rule="nonzero"/></clipPath><mask id="31d14605c0"><g filter="url(#45c537e34c)"><rect x="-144" width="1728" fill="#000000" y="-80.999999" height="971.999992" fill-opacity="0.2"/></g></mask><clipPath id="0973bf2fba"><path d="M 0.761719 0 L 361 0 L 361 576 L 0.761719 576 Z M 0.761719 0 " clip-rule="nonzero"/></clipPath><clipPath id="1bed997365"><path d="M 0.996094 215.996094 C 0.996094 17.171875 162.171875 -144.003906 360.996094 -144.003906 C 559.824219 -144.003906 720.996094 17.171875 720.996094 215.996094 C 720.996094 414.824219 559.824219 575.996094 360.996094 575.996094 C 162.171875 575.996094 0.996094 414.824219 0.996094 215.996094 Z M 0.996094 215.996094 " clip-rule="nonzero"/></clipPath><clipPath id="333d928a33"><rect x="0" width="361" y="0" height="576"/></clipPath><clipPath id="8aad0e85a1"><path d="M 1079 0 L 1440 0 L 1440 577 L 1079 577 Z M 1079 0 " clip-rule="nonzero"/></clipPath><clipPath id="055b464d6a"><path d="M 1079 215.996094 C 1079 16.625 1240.625 -145 1439.996094 -145 L 1439.996094 -144.003906 L 1439.996094 -145 C 1639.378906 -145 1801.003906 16.625 1801.003906 215.996094 C 1801.003906 415.371094 1639.378906 576.996094 1440.003906 576.996094 L 1440.003906 575.996094 L 1440.003906 576.996094 C 1240.625 577.003906 1079 415.378906 1079 215.996094 L 1079.996094 215.996094 L 1080.835938 216.539062 C 1080.597656 216.914062 1080.140625 217.078125 1079.710938 216.957031 C 1079.285156 216.835938 1079 216.441406 1079 215.996094 M 1081.003906 215.996094 L 1079.996094 215.996094 L 1079.15625 215.457031 C 1079.398438 215.082031 1079.855469 214.917969 1080.28125 215.039062 C 1080.710938 215.15625 1081.003906 215.554688 1081.003906 215.996094 C 1081.003906 414.269531 1241.726562 575 1439.996094 575 C 1638.269531 575 1799 414.269531 1799 215.996094 L 1799.996094 215.996094 L 1799 215.996094 C 1799 17.726562 1638.269531 -142.996094 1439.996094 -142.996094 L 1439.996094 -144.003906 L 1439.996094 -142.996094 C 1241.726562 -142.996094 1081.003906 17.726562 1081.003906 215.996094 Z M 1081.003906 215.996094 " clip-rule="nonzero"/></clipPath><mask id="62734b3ac4"><g filter="url(#45c537e34c)"><rect x="-144" width="1728" fill="#000000" y="-80.999999" height="971.999992" fill-opacity="0.2"/></g></mask><clipPath id="c665b76a3e"><path d="M 0 0 L 361 0 L 361 577 L 0 577 Z M 0 0 " clip-rule="nonzero"/></clipPath><clipPath id="a33cb4cc14"><path d="M 0 215.996094 C 0 16.625 161.625 -145 360.996094 -145 L 360.996094 -144.003906 L 360.996094 -145 C 560.378906 -145 722.003906 16.625 722.003906 215.996094 C 722.003906 415.371094 560.378906 576.996094 361.003906 576.996094 L 361.003906 575.996094 L 361.003906 576.996094 C 161.625 577.003906 0 415.378906 0 215.996094 L 0.996094 215.996094 L 1.835938 216.539062 C 1.597656 216.914062 1.140625 217.078125 0.710938 216.957031 C 0.285156 216.835938 0 216.441406 0 215.996094 M 2.003906 215.996094 L 0.996094 215.996094 L 0.15625 215.457031 C 0.398438 215.082031 0.855469 214.917969 1.28125 215.039062 C 1.710938 215.15625 2.003906 215.554688 2.003906 215.996094 C 2.003906 414.269531 162.726562 575 360.996094 575 C 559.269531 575 720 414.269531 720 215.996094 L 720.996094 215.996094 L 720 215.996094 C 720 17.726562 559.269531 -142.996094 360.996094 -142.996094 L 360.996094 -144.003906 L 360.996094 -142.996094 C 162.726562 -142.996094 2.003906 17.726562 2.003906 215.996094 Z M 2.003906 215.996094 " clip-rule="nonzero"/></clipPath><clipPath id="dbfd976b10"><rect x="0" width="361" y="0" height="577"/></clipPath><clipPath id="9b39d218ed"><path d="M 0 503.75 L 360 503.75 L 360 810 L 0 810 Z M 0 503.75 " clip-rule="nonzero"/></clipPath><clipPath id="bead720ed9"><path d="M -216.003906 791.996094 C -216.003906 632.9375 -87.0625 503.996094 71.996094 503.996094 C 231.058594 503.996094 359.996094 632.9375 359.996094 791.996094 C 359.996094 951.058594 231.058594 1079.996094 71.996094 1079.996094 C -87.0625 1079.996094 -216.003906 951.058594 -216.003906 791.996094 Z M -216.003906 791.996094 " clip-rule="nonzero"/></clipPath><mask id="7458274010"><g filter="url(#45c537e34c)"><rect x="-144" width="1728" fill="#000000" y="-80.999999" height="971.999992" fill-opacity="0.15"/></g></mask><clipPath id="c770ed402a"><path d="M 0 0.761719 L 360 0.761719 L 360 307 L 0 307 Z M 0 0.761719 " clip-rule="nonzero"/></clipPath><clipPath id="7b70ad07ea"><path d="M -216.003906 288.996094 C -216.003906 129.9375 -87.0625 0.996094 71.996094 0.996094 C 231.058594 0.996094 359.996094 129.9375 359.996094 288.996094 C 359.996094 448.058594 231.058594 576.996094 71.996094 576.996094 C -87.0625 576.996094 -216.003906 448.058594 -216.003906 288.996094 Z M -216.003906 288.996094 " clip-rule="nonzero"/></clipPath><clipPath id="b51b886a5a"><rect x="0" width="360" y="0" height="307"/></clipPath><clipPath id="93d2cda873"><path d="M 0 503 L 361.75 503 L 361.75 810 L 0 810 Z M 0 503 " clip-rule="nonzero"/></clipPath><clipPath id="44bd052642"><path d="M -217 791.996094 C -217 632.390625 -87.609375 503 71.996094 503 L 71.996094 503.996094 L 71.996094 503 C 231.613281 503 361.003906 632.390625 361.003906 791.996094 L 360.003906 791.996094 L 361.003906 791.996094 C 361.003906 951.605469 231.613281 1080.996094 72.003906 1080.996094 L 72.003906 1079.996094 L 72.003906 1080.996094 C -87.609375 1081.003906 -217 951.613281 -217 791.996094 L -214.996094 791.996094 L -217 791.996094 M -214.996094 791.996094 C -214.996094 792.554688 -215.445312 792.996094 -215.996094 792.996094 C -216.542969 792.996094 -217 792.554688 -217 791.996094 C -217 791.441406 -216.550781 791 -216.003906 791 C -215.453125 791 -215.003906 791.449219 -215.003906 791.996094 C -214.996094 950.503906 -86.507812 1079 71.996094 1079 C 230.503906 1079 359 950.503906 359 791.996094 C 359 633.492188 230.503906 505.003906 71.996094 505.003906 L 71.996094 503.996094 L 71.996094 505.003906 C -86.507812 505.003906 -214.996094 633.492188 -214.996094 791.996094 Z M -214.996094 791.996094 " clip-rule="nonzero"/></clipPath><mask id="225d289f00"><g filter="url(#45c537e34c)"><rect x="-144" width="1728" fill="#000000" y="-80.999999" height="971.999992" fill-opacity="0.15"/></g></mask><clipPath id="c83c90d252"><path d="M 0 0 L 361 0 L 361 307 L 0 307 Z M 0 0 " clip-rule="nonzero"/></clipPath><clipPath id="1f6c2933b3"><path d="M -217 288.996094 C -217 129.390625 -87.609375 0 71.996094 0 L 71.996094 0.996094 L 71.996094 0 C 231.613281 0 361.003906 129.390625 361.003906 288.996094 L 360.003906 288.996094 L 361.003906 288.996094 C 361.003906 448.605469 231.613281 577.996094 72.003906 577.996094 L 72.003906 576.996094 L 72.003906 577.996094 C -87.609375 578.003906 -217 448.613281 -217 288.996094 L -214.996094 288.996094 L -217 288.996094 M -214.996094 288.996094 C -214.996094 289.554688 -215.445312 289.996094 -215.996094 289.996094 C -216.542969 289.996094 -217 289.554688 -217 288.996094 C -217 288.441406 -216.550781 288 -216.003906 288 C -215.453125 288 -215.003906 288.449219 -215.003906 288.996094 C -214.996094 447.503906 -86.507812 576 71.996094 576 C 230.503906 576 359 447.503906 359 288.996094 C 359 130.492188 230.503906 2.003906 71.996094 2.003906 L 71.996094 0.996094 L 71.996094 2.003906 C -86.507812 2.003906 -214.996094 130.492188 -214.996094 288.996094 Z M -214.996094 288.996094 " clip-rule="nonzero"/></clipPath><clipPath id="8a1a795d03"><rect x="0" width="362" y="0" height="307"/></clipPath><clipPath id="c400ce0205"><path d="M 86.398438 86.398438 L 273.597656 86.398438 L 273.597656 187.199219 L 86.398438 187.199219 Z M 86.398438 86.398438 " clip-rule="nonzero"/></clipPath><clipPath id="ff2ed81804"><path d="M 0.398438 0.398438 L 187.597656 0.398438 L 187.597656 101.199219 L 0.398438 101.199219 Z M 0.398438 0.398438 " clip-rule="nonzero"/></clipPath><clipPath id="023ac94953"><rect x="0" width="188" y="0" height="102"/></clipPath><clipPath id="7b3894acf9"><path d="M 85.398438 85.398438 L 274.9375 85.398438 L 274.9375 188.199219 L 85.398438 188.199219 Z M 85.398438 85.398438 " clip-rule="nonzero"/></clipPath><clipPath id="02b460772c"><path d="M 86.398438 85.398438 L 273.597656 85.398438 C 274.152344 85.398438 274.59375 85.851562 274.59375 86.398438 L 274.59375 187.199219 C 274.59375 187.753906 274.144531 188.195312 273.597656 188.195312 L 86.398438 188.195312 C 85.84375 188.195312 85.398438 187.746094 85.398438 187.199219 L 85.398438 86.398438 C 85.398438 85.851562 85.851562 85.398438 86.398438 85.398438 M 86.398438 87.402344 L 86.398438 86.398438 L 87.402344 86.398438 L 87.402344 187.199219 L 86.398438 187.199219 L 86.398438 186.199219 L 273.597656 186.199219 L 273.597656 187.199219 L 272.601562 187.199219 L 272.601562 86.398438 L 273.597656 86.398438 L 273.597656 87.402344 Z M 86.398438 87.402344 " clip-rule="nonzero"/></clipPath><clipPath id="c46105f8df"><path d="M 0.398438 0.398438 L 189.800781 0.398438 L 189.800781 103.199219 L 0.398438 103.199219 Z M 0.398438 0.398438 " clip-rule="nonzero"/></clipPath><clipPath id="02b3472f70"><path d="M 1.398438 0.398438 L 188.597656 0.398438 C 189.152344 0.398438 189.59375 0.851562 189.59375 1.398438 L 189.59375 102.199219 C 189.59375 102.753906 189.144531 103.195312 188.597656 103.195312 L 1.398438 103.195312 C 0.84375 103.195312 0.398438 102.746094 0.398438 102.199219 L 0.398438 1.398438 C 0.398438 0.851562 0.851562 0.398438 1.398438 0.398438 M 1.398438 2.402344 L 1.398438 1.398438 L 2.402344 1.398438 L 2.402344 102.199219 L 1.398438 102.199219 L 1.398438 101.199219 L 188.597656 101.199219 L 188.597656 102.199219 L 187.601562 102.199219 L 187.601562 1.398438 L 188.597656 1.398438 L 188.597656 2.402344 Z M 1.398438 2.402344 " clip-rule="nonzero"/></clipPath><clipPath id="6bb00b0503"><rect x="0" width="190" y="0" height="104"/></clipPath><clipPath id="cac6d84a13"><path d="M 86.398438 619.199219 L 403.199219 619.199219 L 403.199219 627.835938 L 86.398438 627.835938 Z M 86.398438 619.199219 " clip-rule="nonzero"/></clipPath><clipPath id="c4bc9a0ee1"><path d="M 0.398438 0.199219 L 317.199219 0.199219 L 317.199219 8.835938 L 0.398438 8.835938 Z M 0.398438 0.199219 " clip-rule="nonzero"/></clipPath><clipPath id="c171a392d4"><rect x="0" width="318" y="0" height="9"/></clipPath><clipPath id="6c7f079a00"><path d="M 85.398438 618.199219 L 404.234375 618.199219 L 404.234375 628.839844 L 85.398438 628.839844 Z M 85.398438 618.199219 " clip-rule="nonzero"/></clipPath><clipPath id="44c6db17a0"><path d="M 86.398438 618.199219 L 403.199219 618.199219 C 403.753906 618.199219 404.195312 618.648438 404.195312 619.199219 L 404.195312 627.835938 C 404.195312 628.394531 403.746094 628.835938 403.199219 628.835938 L 86.398438 628.835938 C 85.851562 628.84375 85.398438 628.394531 85.398438 627.835938 L 85.398438 619.199219 C 85.398438 618.648438 85.851562 618.199219 86.398438 618.199219 M 86.398438 620.203125 L 86.398438 619.199219 L 87.402344 619.199219 L 87.402344 627.835938 L 86.398438 627.835938 L 86.398438 626.839844 L 403.199219 626.839844 L 403.199219 627.835938 L 402.199219 627.835938 L 402.199219 619.199219 L 403.199219 619.199219 L 403.199219 620.203125 Z M 86.398438 620.203125 " clip-rule="nonzero"/></clipPath><clipPath id="64d8a9ad4c"><path d="M 0.398438 0.199219 L 319.234375 0.199219 L 319.234375 10.839844 L 0.398438 10.839844 Z M 0.398438 0.199219 " clip-rule="nonzero"/></clipPath><clipPath id="16c8ee9390"><path d="M 1.398438 0.199219 L 318.199219 0.199219 C 318.753906 0.199219 319.195312 0.648438 319.195312 1.199219 L 319.195312 9.835938 C 319.195312 10.394531 318.746094 10.835938 318.199219 10.835938 L 1.398438 10.835938 C 0.851562 10.84375 0.398438 10.394531 0.398438 9.835938 L 0.398438 1.199219 C 0.398438 0.648438 0.851562 0.199219 1.398438 0.199219 M 1.398438 2.203125 L 1.398438 1.199219 L 2.402344 1.199219 L 2.402344 9.835938 L 1.398438 9.835938 L 1.398438 8.839844 L 318.199219 8.839844 L 318.199219 9.835938 L 317.199219 9.835938 L 317.199219 1.199219 L 318.199219 1.199219 L 318.199219 2.203125 Z M 1.398438 2.203125 " clip-rule="nonzero"/></clipPath><clipPath id="a74f6397ea"><rect x="0" width="320" y="0" height="11"/></clipPath><clipPath id="98ef9170ae"><path d="M 86.398438 668 L 100 668 L 100 684 L 86.398438 684 Z M 86.398438 668 " clip-rule="nonzero"/></clipPath></defs><rect x="-144" width="1728" fill="#ffffff" y="-80.999999" height="971.999992" fill-opacity="1"/><rect x="-144" width="1728" fill="#1a2e4a" y="-80.999999" height="971.999992" fill-opacity="1"/><g clip-path="url(#88ada99479)"><g clip-path="url(#e161ac4abc)"><g mask="url(#31d14605c0)"><g transform="matrix(1, 0, 0, 1, 1079, 0.000000000000039746)"><g clip-path="url(#333d928a33)"><g clip-path="url(#0973bf2fba)"><g clip-path="url(#1bed997365)"><rect x="-1395.8" width="2073.6" fill="#16a085" height="1166.39999" y="-178.199998" fill-opacity="1"/></g></g></g></g></g></g></g><g clip-path="url(#8aad0e85a1)"><g clip-path="url(#055b464d6a)"><g mask="url(#62734b3ac4)"><g transform="matrix(1, 0, 0, 1, 1079, 0.000000000000039746)"><g clip-path="url(#dbfd976b10)"><g clip-path="url(#c665b76a3e)"><g clip-path="url(#a33cb4cc14)"><rect x="-1395.8" width="2073.6" fill="#16a085" height="1166.39999" y="-178.199998" fill-opacity="1"/></g></g></g></g></g></g></g><g clip-path="url(#9b39d218ed)"><g clip-path="url(#bead720ed9)"><g mask="url(#7458274010)"><g transform="matrix(1, 0, 0, 1, 0, 503)"><g clip-path="url(#b51b886a5a)"><g clip-path="url(#c770ed402a)"><g clip-path="url(#7b70ad07ea)"><rect x="-316.8" width="2073.6" fill="#27ae60" height="1166.39999" y="-681.199998" fill-opacity="1"/></g></g></g></g></g></g></g><g clip-path="url(#93d2cda873)"><g clip-path="url(#44bd052642)"><g mask="url(#225d289f00)"><g transform="matrix(1, 0, 0, 1, 0, 503)"><g clip-path="url(#8a1a795d03)"><g clip-path="url(#c83c90d252)"><g clip-path="url(#1f6c2933b3)"><path fill="#27ae60" d="M -217 0 L 361 0 L 361 578 L -217 578 Z M -217 0 " fill-opacity="1" fill-rule="nonzero"/></g></g></g></g></g></g></g><g clip-path="url(#c400ce0205)"><g transform="matrix(1, 0, 0, 1, 86, 86)"><g clip-path="url(#023ac94953)"><g clip-path="url(#ff2ed81804)"><rect x="-402.8" width="2073.6" fill="#27ae60" height="1166.39999" y="-264.199998" fill-opacity="1"/></g></g></g></g><g clip-path="url(#7b3894acf9)"><g clip-path="url(#02b460772c)"><g transform="matrix(1, 0, 0, 1, 85, 85)"><g clip-path="url(#6bb00b0503)"><g clip-path="url(#c46105f8df)"><g clip-path="url(#02b3472f70)"><path fill="#27ae60" d="M 0.398438 0.398438 L 189.535156 0.398438 L 189.535156 103.199219 L 0.398438 103.199219 Z M 0.398438 0.398438 " fill-opacity="1" fill-rule="nonzero"/></g></g></g></g></g></g><g fill="#ffffff" fill-opacity="1"><g transform="translate(156.943747, 151.650012)"><g><path d="M 15.046875 -18.296875 L 11 -18.296875 L 11 0 L 3.46875 0 L 3.46875 -18.296875 L 0.75 -18.296875 L 0.75 -24.546875 L 3.46875 -24.546875 L 3.46875 -25.25 C 3.46875 -28.269531 4.332031 -30.566406 6.0625 -32.140625 C 7.800781 -33.710938 10.34375 -34.5 13.6875 -34.5 C 14.238281 -34.5 14.648438 -34.484375 14.921875 -34.453125 L 14.921875 -28.078125 C 13.484375 -28.160156 12.46875 -27.953125 11.875 -27.453125 C 11.289062 -26.953125 11 -26.054688 11 -24.765625 L 11 -24.546875 L 15.046875 -24.546875 Z M 15.046875 -18.296875 "/></g></g></g><g fill="#ffffff" fill-opacity="1"><g transform="translate(177.180928, 151.650012)"><g><path d="M 17.25 0 L 12.546875 -6.8125 L 8.578125 0 L 0.4375 0 L 8.53125 -12.546875 L 0.21875 -24.546875 L 8.671875 -24.546875 L 13.375 -17.78125 L 17.34375 -24.546875 L 25.46875 -24.546875 L 17.25 -12.1875 L 25.703125 0 Z M 17.25 0 "/></g></g></g><g fill="#27ae60" fill-opacity="1"><g transform="translate(86.400002, 260.250007)"><g><path d="M 22.28125 -18.25 L 22.28125 0 L 17.84375 0 L 17.84375 -10.953125 L 13.75 0 L 10.171875 0 L 6.0625 -10.96875 L 6.0625 0 L 1.609375 0 L 1.609375 -18.25 L 6.859375 -18.25 L 11.984375 -5.609375 L 17.0625 -18.25 Z M 22.28125 -18.25 "/></g></g></g><g fill="#27ae60" fill-opacity="1"><g transform="translate(112.860847, 260.250007)"><g><path d="M 12.96875 -3.21875 L 6.15625 -3.21875 L 5.0625 0 L 0.421875 0 L 7.015625 -18.25 L 12.171875 -18.25 L 18.765625 0 L 14.0625 0 Z M 11.828125 -6.65625 L 9.5625 -13.34375 L 7.328125 -6.65625 Z M 11.828125 -6.65625 "/></g></g></g><g fill="#27ae60" fill-opacity="1"><g transform="translate(134.617106, 260.250007)"><g><path d="M 14.734375 -18.25 L 14.734375 -14.6875 L 9.90625 -14.6875 L 9.90625 0 L 5.453125 0 L 5.453125 -14.6875 L 0.625 -14.6875 L 0.625 -18.25 Z M 14.734375 -18.25 "/></g></g></g><g fill="#27ae60" fill-opacity="1"><g transform="translate(152.578504, 260.250007)"><g><path d="M 6.0625 -14.6875 L 6.0625 -11 L 12.015625 -11 L 12.015625 -7.5625 L 6.0625 -7.5625 L 6.0625 -3.5625 L 12.796875 -3.5625 L 12.796875 0 L 1.609375 0 L 1.609375 -18.25 L 12.796875 -18.25 L 12.796875 -14.6875 Z M 6.0625 -14.6875 "/></g></g></g><g fill="#27ae60" fill-opacity="1"><g transform="translate(169.240288, 260.250007)"><g><path d="M 10.921875 0 L 7.125 -6.890625 L 6.0625 -6.890625 L 6.0625 0 L 1.609375 0 L 1.609375 -18.25 L 9.078125 -18.25 C 10.515625 -18.25 11.738281 -18 12.75 -17.5 C 13.769531 -17 14.53125 -16.3125 15.03125 -15.4375 C 15.53125 -14.5625 15.78125 -13.582031 15.78125 -12.5 C 15.78125 -11.289062 15.4375 -10.207031 14.75 -9.25 C 14.070312 -8.300781 13.0625 -7.628906 11.71875 -7.234375 L 15.9375 0 Z M 6.0625 -10.03125 L 8.8125 -10.03125 C 9.625 -10.03125 10.234375 -10.226562 10.640625 -10.625 C 11.054688 -11.03125 11.265625 -11.597656 11.265625 -12.328125 C 11.265625 -13.015625 11.054688 -13.554688 10.640625 -13.953125 C 10.234375 -14.359375 9.625 -14.5625 8.8125 -14.5625 L 6.0625 -14.5625 Z M 6.0625 -10.03125 "/></g></g></g><g fill="#27ae60" fill-opacity="1"><g transform="translate(188.787208, 260.250007)"><g><path d="M 6.0625 -18.25 L 6.0625 0 L 1.609375 0 L 1.609375 -18.25 Z M 6.0625 -18.25 "/></g></g></g><g fill="#27ae60" fill-opacity="1"><g transform="translate(199.054904, 260.250007)"><g/></g></g><g fill="#27ae60" fill-opacity="1"><g transform="translate(207.165251, 260.250007)"><g><path d="M 10.921875 0 L 7.125 -6.890625 L 6.0625 -6.890625 L 6.0625 0 L 1.609375 0 L 1.609375 -18.25 L 9.078125 -18.25 C 10.515625 -18.25 11.738281 -18 12.75 -17.5 C 13.769531 -17 14.53125 -16.3125 15.03125 -15.4375 C 15.53125 -14.5625 15.78125 -13.582031 15.78125 -12.5 C 15.78125 -11.289062 15.4375 -10.207031 14.75 -9.25 C 14.070312 -8.300781 13.0625 -7.628906 11.71875 -7.234375 L 15.9375 0 Z M 6.0625 -10.03125 L 8.8125 -10.03125 C 9.625 -10.03125 10.234375 -10.226562 10.640625 -10.625 C 11.054688 -11.03125 11.265625 -11.597656 11.265625 -12.328125 C 11.265625 -13.015625 11.054688 -13.554688 10.640625 -13.953125 C 10.234375 -14.359375 9.625 -14.5625 8.8125 -14.5625 L 6.0625 -14.5625 Z M 6.0625 -10.03125 "/></g></g></g><g fill="#27ae60" fill-opacity="1"><g transform="translate(226.712171, 260.250007)"><g><path d="M 6.0625 -14.6875 L 6.0625 -11 L 12.015625 -11 L 12.015625 -7.5625 L 6.0625 -7.5625 L 6.0625 -3.5625 L 12.796875 -3.5625 L 12.796875 0 L 1.609375 0 L 1.609375 -18.25 L 12.796875 -18.25 L 12.796875 -14.6875 Z M 6.0625 -14.6875 "/></g></g></g><g fill="#27ae60" fill-opacity="1"><g transform="translate(243.373956, 260.250007)"><g><path d="M 18.75 -18.25 L 12.265625 0 L 6.703125 0 L 0.234375 -18.25 L 4.96875 -18.25 L 9.484375 -4.46875 L 14.046875 -18.25 Z M 18.75 -18.25 "/></g></g></g><g fill="#27ae60" fill-opacity="1"><g transform="translate(264.948265, 260.250007)"><g><path d="M 6.0625 -18.25 L 6.0625 0 L 1.609375 0 L 1.609375 -18.25 Z M 6.0625 -18.25 "/></g></g></g><g fill="#27ae60" fill-opacity="1"><g transform="translate(275.215961, 260.250007)"><g><path d="M 6.0625 -14.6875 L 6.0625 -11 L 12.015625 -11 L 12.015625 -7.5625 L 6.0625 -7.5625 L 6.0625 -3.5625 L 12.796875 -3.5625 L 12.796875 0 L 1.609375 0 L 1.609375 -18.25 L 12.796875 -18.25 L 12.796875 -14.6875 Z M 6.0625 -14.6875 "/></g></g></g><g fill="#27ae60" fill-opacity="1"><g transform="translate(291.877745, 260.250007)"><g><path d="M 26.734375 -18.25 L 21.96875 0 L 16.59375 0 L 13.671875 -12.015625 L 10.65625 0 L 5.28125 0 L 0.65625 -18.25 L 5.40625 -18.25 L 8.03125 -4.96875 L 11.28125 -18.25 L 16.171875 -18.25 L 19.296875 -4.96875 L 21.9375 -18.25 Z M 26.734375 -18.25 "/></g></g></g><g fill="#ffffff" fill-opacity="1"><g transform="translate(86.400002, 457.499997)"><g><path d="M 53.765625 0 L 35.078125 -33.921875 L 29.828125 -33.921875 L 29.828125 0 L 7.9375 0 L 7.9375 -89.859375 L 44.671875 -89.859375 C 51.753906 -89.859375 57.789062 -88.617188 62.78125 -86.140625 C 67.769531 -83.671875 71.503906 -80.28125 73.984375 -75.96875 C 76.460938 -71.65625 77.703125 -66.851562 77.703125 -61.5625 C 77.703125 -55.59375 76.015625 -50.257812 72.640625 -45.5625 C 69.265625 -40.875 64.296875 -37.546875 57.734375 -35.578125 L 78.46875 0 Z M 29.828125 -49.40625 L 43.390625 -49.40625 C 47.398438 -49.40625 50.40625 -50.382812 52.40625 -52.34375 C 54.414062 -54.3125 55.421875 -57.085938 55.421875 -60.671875 C 55.421875 -64.085938 54.414062 -66.773438 52.40625 -68.734375 C 50.40625 -70.703125 47.398438 -71.6875 43.390625 -71.6875 L 29.828125 -71.6875 Z M 29.828125 -49.40625 "/></g></g></g><g fill="#ffffff" fill-opacity="1"><g transform="translate(182.650909, 457.499997)"><g><path d="M 78.46875 -71.421875 L 78.46875 0 L 56.578125 0 L 56.578125 -9.734375 C 54.359375 -6.566406 51.347656 -4.023438 47.546875 -2.109375 C 43.753906 -0.191406 39.550781 0.765625 34.9375 0.765625 C 29.476562 0.765625 24.65625 -0.445312 20.46875 -2.875 C 16.289062 -5.3125 13.050781 -8.832031 10.75 -13.4375 C 8.445312 -18.050781 7.296875 -23.472656 7.296875 -29.703125 L 7.296875 -71.421875 L 29.0625 -71.421875 L 29.0625 -32.640625 C 29.0625 -27.859375 30.296875 -24.144531 32.765625 -21.5 C 35.242188 -18.851562 38.570312 -17.53125 42.75 -17.53125 C 47.019531 -17.53125 50.390625 -18.851562 52.859375 -21.5 C 55.335938 -24.144531 56.578125 -27.859375 56.578125 -32.640625 L 56.578125 -71.421875 Z M 78.46875 -71.421875 "/></g></g></g><g fill="#ffffff" fill-opacity="1"><g transform="translate(281.717634, 457.499997)"><g><path d="M 99.078125 -72.1875 C 107.953125 -72.1875 115.007812 -69.5 120.25 -64.125 C 125.5 -58.75 128.125 -51.285156 128.125 -41.734375 L 128.125 0 L 106.375 0 L 106.375 -38.78125 C 106.375 -43.394531 105.15625 -46.957031 102.71875 -49.46875 C 100.289062 -51.988281 96.941406 -53.25 92.671875 -53.25 C 88.398438 -53.25 85.046875 -51.988281 82.609375 -49.46875 C 80.179688 -46.957031 78.96875 -43.394531 78.96875 -38.78125 L 78.96875 0 L 57.21875 0 L 57.21875 -38.78125 C 57.21875 -43.394531 56 -46.957031 53.5625 -49.46875 C 51.132812 -51.988281 47.785156 -53.25 43.515625 -53.25 C 39.253906 -53.25 35.90625 -51.988281 33.46875 -49.46875 C 31.039062 -46.957031 29.828125 -43.394531 29.828125 -38.78125 L 29.828125 0 L 7.9375 0 L 7.9375 -71.421875 L 29.828125 -71.421875 L 29.828125 -62.46875 C 32.046875 -65.445312 34.945312 -67.8125 38.53125 -69.5625 C 42.113281 -71.3125 46.164062 -72.1875 50.6875 -72.1875 C 56.0625 -72.1875 60.859375 -71.035156 65.078125 -68.734375 C 69.304688 -66.429688 72.617188 -63.144531 75.015625 -58.875 C 77.484375 -62.800781 80.847656 -66 85.109375 -68.46875 C 89.378906 -70.945312 94.035156 -72.1875 99.078125 -72.1875 Z M 99.078125 -72.1875 "/></g></g></g><g fill="#ffffff" fill-opacity="1"><g transform="translate(430.061349, 457.499997)"><g><path d="M 78.46875 -71.421875 L 78.46875 0 L 56.578125 0 L 56.578125 -9.734375 C 54.359375 -6.566406 51.347656 -4.023438 47.546875 -2.109375 C 43.753906 -0.191406 39.550781 0.765625 34.9375 0.765625 C 29.476562 0.765625 24.65625 -0.445312 20.46875 -2.875 C 16.289062 -5.3125 13.050781 -8.832031 10.75 -13.4375 C 8.445312 -18.050781 7.296875 -23.472656 7.296875 -29.703125 L 7.296875 -71.421875 L 29.0625 -71.421875 L 29.0625 -32.640625 C 29.0625 -27.859375 30.296875 -24.144531 32.765625 -21.5 C 35.242188 -18.851562 38.570312 -17.53125 42.75 -17.53125 C 47.019531 -17.53125 50.390625 -18.851562 52.859375 -21.5 C 55.335938 -24.144531 56.578125 -27.859375 56.578125 -32.640625 L 56.578125 -71.421875 Z M 78.46875 -71.421875 "/></g></g></g><g fill="#ffffff" fill-opacity="1"><g transform="translate(529.12804, 457.499997)"><g><path d="M 36.984375 1.03125 C 30.753906 1.03125 25.207031 -0.0351562 20.34375 -2.171875 C 15.488281 -4.304688 11.648438 -7.226562 8.828125 -10.9375 C 6.015625 -14.65625 4.4375 -18.816406 4.09375 -23.421875 L 25.734375 -23.421875 C 25.984375 -20.953125 27.128906 -18.945312 29.171875 -17.40625 C 31.222656 -15.875 33.742188 -15.109375 36.734375 -15.109375 C 39.460938 -15.109375 41.570312 -15.640625 43.0625 -16.703125 C 44.5625 -17.765625 45.3125 -19.148438 45.3125 -20.859375 C 45.3125 -22.910156 44.242188 -24.425781 42.109375 -25.40625 C 39.972656 -26.382812 36.519531 -27.472656 31.75 -28.671875 C 26.625 -29.867188 22.351562 -31.128906 18.9375 -32.453125 C 15.53125 -33.773438 12.585938 -35.863281 10.109375 -38.71875 C 7.640625 -41.582031 6.40625 -45.441406 6.40625 -50.296875 C 6.40625 -54.398438 7.535156 -58.132812 9.796875 -61.5 C 12.054688 -64.875 15.382812 -67.539062 19.78125 -69.5 C 24.175781 -71.46875 29.398438 -72.453125 35.453125 -72.453125 C 44.410156 -72.453125 51.472656 -70.234375 56.640625 -65.796875 C 61.804688 -61.359375 64.769531 -55.46875 65.53125 -48.125 L 45.3125 -48.125 C 44.96875 -50.601562 43.878906 -52.566406 42.046875 -54.015625 C 40.210938 -55.460938 37.800781 -56.1875 34.8125 -56.1875 C 32.25 -56.1875 30.285156 -55.695312 28.921875 -54.71875 C 27.554688 -53.738281 26.875 -52.394531 26.875 -50.6875 C 26.875 -48.632812 27.960938 -47.097656 30.140625 -46.078125 C 32.316406 -45.054688 35.707031 -44.035156 40.3125 -43.015625 C 45.601562 -41.640625 49.910156 -40.289062 53.234375 -38.96875 C 56.566406 -37.644531 59.492188 -35.507812 62.015625 -32.5625 C 64.535156 -29.625 65.835938 -25.679688 65.921875 -20.734375 C 65.921875 -16.554688 64.742188 -12.820312 62.390625 -9.53125 C 60.046875 -6.25 56.675781 -3.664062 52.28125 -1.78125 C 47.894531 0.09375 42.796875 1.03125 36.984375 1.03125 Z M 36.984375 1.03125 "/></g></g></g><g fill="#ffffff" fill-opacity="1"><g transform="translate(613.347717, 457.499997)"><g/></g></g><g fill="#ffffff" fill-opacity="1"><g transform="translate(653.282057, 457.499997)"><g><path d="M 29.828125 -89.859375 L 29.828125 0 L 7.9375 0 L 7.9375 -89.859375 Z M 29.828125 -89.859375 "/></g></g></g><g fill="#ffffff" fill-opacity="1"><g transform="translate(703.839763, 457.499997)"><g><path d="M 66.4375 -89.859375 L 66.4375 -72.3125 L 29.828125 -72.3125 L 29.828125 -53.375 L 57.21875 -53.375 L 57.21875 -36.359375 L 29.828125 -36.359375 L 29.828125 0 L 7.9375 0 L 7.9375 -89.859375 Z M 66.4375 -89.859375 "/></g></g></g><g fill="#ecf0f1" fill-opacity="1"><g transform="translate(86.400002, 543.449969)"><g><path d="M 2.234375 -14.359375 C 2.234375 -17.265625 2.820312 -19.816406 4 -22.015625 C 5.175781 -24.222656 6.796875 -25.929688 8.859375 -27.140625 C 10.921875 -28.359375 13.238281 -28.96875 15.8125 -28.96875 C 18.03125 -28.96875 20.09375 -28.453125 22 -27.421875 C 23.90625 -26.398438 25.359375 -25.0625 26.359375 -23.40625 L 26.359375 -38.484375 L 31.140625 -38.484375 L 31.140625 0 L 26.359375 0 L 26.359375 -5.359375 C 25.421875 -3.660156 24.035156 -2.265625 22.203125 -1.171875 C 20.367188 -0.078125 18.21875 0.46875 15.75 0.46875 C 13.21875 0.46875 10.921875 -0.15625 8.859375 -1.40625 C 6.796875 -2.65625 5.175781 -4.40625 4 -6.65625 C 2.820312 -8.90625 2.234375 -11.472656 2.234375 -14.359375 Z M 26.359375 -14.296875 C 26.359375 -16.453125 25.925781 -18.328125 25.0625 -19.921875 C 24.195312 -21.515625 23.023438 -22.734375 21.546875 -23.578125 C 20.078125 -24.429688 18.457031 -24.859375 16.6875 -24.859375 C 14.925781 -24.859375 13.316406 -24.441406 11.859375 -23.609375 C 10.398438 -22.773438 9.238281 -21.5625 8.375 -19.96875 C 7.507812 -18.375 7.078125 -16.503906 7.078125 -14.359375 C 7.078125 -12.171875 7.507812 -10.269531 8.375 -8.65625 C 9.238281 -7.039062 10.398438 -5.804688 11.859375 -4.953125 C 13.316406 -4.109375 14.925781 -3.6875 16.6875 -3.6875 C 18.457031 -3.6875 20.078125 -4.109375 21.546875 -4.953125 C 23.023438 -5.804688 24.195312 -7.039062 25.0625 -8.65625 C 25.925781 -10.269531 26.359375 -12.148438 26.359375 -14.296875 Z M 26.359375 -14.296875 "/></g></g></g><g fill="#ecf0f1" fill-opacity="1"><g transform="translate(126.749316, 543.449969)"><g><path d="M 6.453125 -33.125 C 5.546875 -33.125 4.78125 -33.4375 4.15625 -34.0625 C 3.53125 -34.6875 3.21875 -35.445312 3.21875 -36.34375 C 3.21875 -37.25 3.53125 -38.015625 4.15625 -38.640625 C 4.78125 -39.265625 5.546875 -39.578125 6.453125 -39.578125 C 7.316406 -39.578125 8.050781 -39.265625 8.65625 -38.640625 C 9.257812 -38.015625 9.5625 -37.25 9.5625 -36.34375 C 9.5625 -35.445312 9.257812 -34.6875 8.65625 -34.0625 C 8.050781 -33.4375 7.316406 -33.125 6.453125 -33.125 Z M 8.734375 -28.5 L 8.734375 0 L 4 0 L 4 -28.5 Z M 8.734375 -28.5 "/></g></g></g><g fill="#ecf0f1" fill-opacity="1"><g transform="translate(144.740331, 543.449969)"><g/></g></g><g fill="#ecf0f1" fill-opacity="1"><g transform="translate(163.823262, 543.449969)"><g><path d="M 40.765625 -35.984375 L 40.765625 0 L 36.03125 0 L 36.03125 -26.828125 L 24.078125 0 L 20.75 0 L 8.734375 -26.890625 L 8.734375 0 L 4 0 L 4 -35.984375 L 9.09375 -35.984375 L 22.40625 -6.234375 L 35.71875 -35.984375 Z M 40.765625 -35.984375 "/></g></g></g><g fill="#ecf0f1" fill-opacity="1"><g transform="translate(213.791849, 543.449969)"><g><path d="M 6.453125 -33.125 C 5.546875 -33.125 4.78125 -33.4375 4.15625 -34.0625 C 3.53125 -34.6875 3.21875 -35.445312 3.21875 -36.34375 C 3.21875 -37.25 3.53125 -38.015625 4.15625 -38.640625 C 4.78125 -39.265625 5.546875 -39.578125 6.453125 -39.578125 C 7.316406 -39.578125 8.050781 -39.265625 8.65625 -38.640625 C 9.257812 -38.015625 9.5625 -37.25 9.5625 -36.34375 C 9.5625 -35.445312 9.257812 -34.6875 8.65625 -34.0625 C 8.050781 -33.4375 7.316406 -33.125 6.453125 -33.125 Z M 8.734375 -28.5 L 8.734375 0 L 4 0 L 4 -28.5 Z M 8.734375 -28.5 "/></g></g></g><g fill="#ecf0f1" fill-opacity="1"><g transform="translate(231.782865, 543.449969)"><g><path d="M 2.234375 -14.296875 C 2.234375 -17.242188 2.820312 -19.816406 4 -22.015625 C 5.175781 -24.222656 6.8125 -25.929688 8.90625 -27.140625 C 11.007812 -28.359375 13.414062 -28.96875 16.125 -28.96875 C 19.625 -28.96875 22.507812 -28.117188 24.78125 -26.421875 C 27.050781 -24.722656 28.550781 -22.363281 29.28125 -19.34375 L 24.1875 -19.34375 C 23.695312 -21.070312 22.75 -22.4375 21.34375 -23.4375 C 19.9375 -24.445312 18.195312 -24.953125 16.125 -24.953125 C 13.414062 -24.953125 11.226562 -24.023438 9.5625 -22.171875 C 7.90625 -20.316406 7.078125 -17.691406 7.078125 -14.296875 C 7.078125 -10.867188 7.90625 -8.21875 9.5625 -6.34375 C 11.226562 -4.46875 13.414062 -3.53125 16.125 -3.53125 C 18.195312 -3.53125 19.925781 -4.015625 21.3125 -4.984375 C 22.707031 -5.960938 23.664062 -7.351562 24.1875 -9.15625 L 29.28125 -9.15625 C 28.507812 -6.238281 26.976562 -3.90625 24.6875 -2.15625 C 22.40625 -0.40625 19.550781 0.46875 16.125 0.46875 C 13.414062 0.46875 11.007812 -0.132812 8.90625 -1.34375 C 6.8125 -2.5625 5.175781 -4.28125 4 -6.5 C 2.820312 -8.71875 2.234375 -11.316406 2.234375 -14.296875 Z M 2.234375 -14.296875 "/></g></g></g><g fill="#ecf0f1" fill-opacity="1"><g transform="translate(268.544456, 543.449969)"><g><path d="M 8.734375 -23.875 C 9.566406 -25.5 10.753906 -26.757812 12.296875 -27.65625 C 13.835938 -28.5625 15.71875 -29.015625 17.9375 -29.015625 L 17.9375 -24.125 L 16.6875 -24.125 C 11.382812 -24.125 8.734375 -21.25 8.734375 -15.5 L 8.734375 0 L 4 0 L 4 -28.5 L 8.734375 -28.5 Z M 8.734375 -23.875 "/></g></g></g><g fill="#ecf0f1" fill-opacity="1"><g transform="translate(293.138975, 543.449969)"><g><path d="M 16.4375 0.46875 C 13.757812 0.46875 11.335938 -0.132812 9.171875 -1.34375 C 7.003906 -2.5625 5.304688 -4.285156 4.078125 -6.515625 C 2.847656 -8.753906 2.234375 -11.347656 2.234375 -14.296875 C 2.234375 -17.210938 2.863281 -19.785156 4.125 -22.015625 C 5.394531 -24.253906 7.117188 -25.972656 9.296875 -27.171875 C 11.484375 -28.367188 13.929688 -28.96875 16.640625 -28.96875 C 19.347656 -28.96875 21.789062 -28.367188 23.96875 -27.171875 C 26.15625 -25.972656 27.878906 -24.265625 29.140625 -22.046875 C 30.410156 -19.828125 31.046875 -17.242188 31.046875 -14.296875 C 31.046875 -11.347656 30.394531 -8.753906 29.09375 -6.515625 C 27.789062 -4.285156 26.03125 -2.5625 23.8125 -1.34375 C 21.59375 -0.132812 19.132812 0.46875 16.4375 0.46875 Z M 16.4375 -3.6875 C 18.132812 -3.6875 19.726562 -4.082031 21.21875 -4.875 C 22.707031 -5.675781 23.910156 -6.875 24.828125 -8.46875 C 25.742188 -10.070312 26.203125 -12.015625 26.203125 -14.296875 C 26.203125 -16.585938 25.75 -18.53125 24.84375 -20.125 C 23.945312 -21.71875 22.769531 -22.90625 21.3125 -23.6875 C 19.863281 -24.46875 18.289062 -24.859375 16.59375 -24.859375 C 14.851562 -24.859375 13.265625 -24.46875 11.828125 -23.6875 C 10.390625 -22.90625 9.238281 -21.71875 8.375 -20.125 C 7.507812 -18.53125 7.078125 -16.585938 7.078125 -14.296875 C 7.078125 -11.972656 7.5 -10.015625 8.34375 -8.421875 C 9.195312 -6.828125 10.332031 -5.640625 11.75 -4.859375 C 13.175781 -4.078125 14.738281 -3.6875 16.4375 -3.6875 Z M 16.4375 -3.6875 "/></g></g></g><g fill="#ecf0f1" fill-opacity="1"><g transform="translate(331.616436, 543.449969)"><g><path d="M 14.09375 0.46875 C 11.90625 0.46875 9.941406 0.0976562 8.203125 -0.640625 C 6.472656 -1.390625 5.101562 -2.429688 4.09375 -3.765625 C 3.09375 -5.097656 2.539062 -6.632812 2.4375 -8.375 L 7.328125 -8.375 C 7.472656 -6.945312 8.140625 -5.78125 9.328125 -4.875 C 10.523438 -3.976562 12.097656 -3.53125 14.046875 -3.53125 C 15.847656 -3.53125 17.265625 -3.925781 18.296875 -4.71875 C 19.335938 -5.519531 19.859375 -6.53125 19.859375 -7.75 C 19.859375 -9 19.300781 -9.925781 18.1875 -10.53125 C 17.082031 -11.132812 15.367188 -11.734375 13.046875 -12.328125 C 10.929688 -12.878906 9.207031 -13.441406 7.875 -14.015625 C 6.539062 -14.585938 5.394531 -15.4375 4.4375 -16.5625 C 3.488281 -17.6875 3.015625 -19.171875 3.015625 -21.015625 C 3.015625 -22.460938 3.445312 -23.789062 4.3125 -25 C 5.175781 -26.21875 6.40625 -27.179688 8 -27.890625 C 9.601562 -28.609375 11.425781 -28.96875 13.46875 -28.96875 C 16.625 -28.96875 19.171875 -28.171875 21.109375 -26.578125 C 23.054688 -24.984375 24.097656 -22.796875 24.234375 -20.015625 L 19.5 -20.015625 C 19.394531 -21.503906 18.796875 -22.695312 17.703125 -23.59375 C 16.609375 -24.5 15.144531 -24.953125 13.3125 -24.953125 C 11.613281 -24.953125 10.257812 -24.585938 9.25 -23.859375 C 8.25 -23.140625 7.75 -22.191406 7.75 -21.015625 C 7.75 -20.078125 8.050781 -19.300781 8.65625 -18.6875 C 9.257812 -18.082031 10.019531 -17.597656 10.9375 -17.234375 C 11.863281 -16.867188 13.140625 -16.460938 14.765625 -16.015625 C 16.816406 -15.460938 18.484375 -14.914062 19.765625 -14.375 C 21.046875 -13.84375 22.144531 -13.035156 23.0625 -11.953125 C 23.976562 -10.878906 24.453125 -9.476562 24.484375 -7.75 C 24.484375 -6.1875 24.050781 -4.78125 23.1875 -3.53125 C 22.320312 -2.28125 21.097656 -1.300781 19.515625 -0.59375 C 17.941406 0.113281 16.132812 0.46875 14.09375 0.46875 Z M 14.09375 0.46875 "/></g></g></g><g fill="#ecf0f1" fill-opacity="1"><g transform="translate(363.958354, 543.449969)"><g><path d="M 16.4375 0.46875 C 13.757812 0.46875 11.335938 -0.132812 9.171875 -1.34375 C 7.003906 -2.5625 5.304688 -4.285156 4.078125 -6.515625 C 2.847656 -8.753906 2.234375 -11.347656 2.234375 -14.296875 C 2.234375 -17.210938 2.863281 -19.785156 4.125 -22.015625 C 5.394531 -24.253906 7.117188 -25.972656 9.296875 -27.171875 C 11.484375 -28.367188 13.929688 -28.96875 16.640625 -28.96875 C 19.347656 -28.96875 21.789062 -28.367188 23.96875 -27.171875 C 26.15625 -25.972656 27.878906 -24.265625 29.140625 -22.046875 C 30.410156 -19.828125 31.046875 -17.242188 31.046875 -14.296875 C 31.046875 -11.347656 30.394531 -8.753906 29.09375 -6.515625 C 27.789062 -4.285156 26.03125 -2.5625 23.8125 -1.34375 C 21.59375 -0.132812 19.132812 0.46875 16.4375 0.46875 Z M 16.4375 -3.6875 C 18.132812 -3.6875 19.726562 -4.082031 21.21875 -4.875 C 22.707031 -5.675781 23.910156 -6.875 24.828125 -8.46875 C 25.742188 -10.070312 26.203125 -12.015625 26.203125 -14.296875 C 26.203125 -16.585938 25.75 -18.53125 24.84375 -20.125 C 23.945312 -21.71875 22.769531 -22.90625 21.3125 -23.6875 C 19.863281 -24.46875 18.289062 -24.859375 16.59375 -24.859375 C 14.851562 -24.859375 13.265625 -24.46875 11.828125 -23.6875 C 10.390625 -22.90625 9.238281 -21.71875 8.375 -20.125 C 7.507812 -18.53125 7.078125 -16.585938 7.078125 -14.296875 C 7.078125 -11.972656 7.5 -10.015625 8.34375 -8.421875 C 9.195312 -6.828125 10.332031 -5.640625 11.75 -4.859375 C 13.175781 -4.078125 14.738281 -3.6875 16.4375 -3.6875 Z M 16.4375 -3.6875 "/></g></g></g><g fill="#ecf0f1" fill-opacity="1"><g transform="translate(402.435815, 543.449969)"><g><path d="M 15.59375 -24.59375 L 9.625 -24.59375 L 9.625 0 L 4.890625 0 L 4.890625 -24.59375 L 1.203125 -24.59375 L 1.203125 -28.5 L 4.890625 -28.5 L 4.890625 -30.53125 C 4.890625 -33.71875 5.710938 -36.046875 7.359375 -37.515625 C 9.003906 -38.992188 11.644531 -39.734375 15.28125 -39.734375 L 15.28125 -35.78125 C 13.207031 -35.78125 11.742188 -35.367188 10.890625 -34.546875 C 10.046875 -33.734375 9.625 -32.394531 9.625 -30.53125 L 9.625 -28.5 L 15.59375 -28.5 Z M 15.59375 -24.59375 "/></g></g></g><g fill="#ecf0f1" fill-opacity="1"><g transform="translate(424.7425, 543.449969)"><g><path d="M 9.78125 -24.59375 L 9.78125 -7.796875 C 9.78125 -6.410156 10.070312 -5.429688 10.65625 -4.859375 C 11.25 -4.285156 12.273438 -4 13.734375 -4 L 17.21875 -4 L 17.21875 0 L 12.953125 0 C 10.316406 0 8.335938 -0.601562 7.015625 -1.8125 C 5.703125 -3.03125 5.046875 -5.023438 5.046875 -7.796875 L 5.046875 -24.59375 L 1.359375 -24.59375 L 1.359375 -28.5 L 5.046875 -28.5 L 5.046875 -35.671875 L 9.78125 -35.671875 L 9.78125 -28.5 L 17.21875 -28.5 L 17.21875 -24.59375 Z M 9.78125 -24.59375 "/></g></g></g><g fill="#ecf0f1" fill-opacity="1"><g transform="translate(448.869071, 543.449969)"><g/></g></g><g fill="#ecf0f1" fill-opacity="1"><g transform="translate(467.952001, 543.449969)"><g><path d="M 8.734375 -32.390625 L 8.734375 -20.28125 L 21.9375 -20.28125 L 21.9375 -16.375 L 8.734375 -16.375 L 8.734375 -3.90625 L 23.5 -3.90625 L 23.5 0 L 4 0 L 4 -36.296875 L 23.5 -36.296875 L 23.5 -32.390625 Z M 8.734375 -32.390625 "/></g></g></g><g fill="#ecf0f1" fill-opacity="1"><g transform="translate(499.825947, 543.449969)"><g><path d="M 18.875 0 L 12.109375 -10.609375 L 5.609375 0 L 0.671875 0 L 9.875 -14.140625 L 0.671875 -28.5 L 6.03125 -28.5 L 12.796875 -17.9375 L 19.234375 -28.5 L 24.1875 -28.5 L 15.03125 -14.40625 L 24.234375 0 Z M 18.875 0 "/></g></g></g><g fill="#ecf0f1" fill-opacity="1"><g transform="translate(529.932055, 543.449969)"><g><path d="M 2.234375 -14.296875 C 2.234375 -17.242188 2.820312 -19.816406 4 -22.015625 C 5.175781 -24.222656 6.8125 -25.929688 8.90625 -27.140625 C 11.007812 -28.359375 13.414062 -28.96875 16.125 -28.96875 C 19.625 -28.96875 22.507812 -28.117188 24.78125 -26.421875 C 27.050781 -24.722656 28.550781 -22.363281 29.28125 -19.34375 L 24.1875 -19.34375 C 23.695312 -21.070312 22.75 -22.4375 21.34375 -23.4375 C 19.9375 -24.445312 18.195312 -24.953125 16.125 -24.953125 C 13.414062 -24.953125 11.226562 -24.023438 9.5625 -22.171875 C 7.90625 -20.316406 7.078125 -17.691406 7.078125 -14.296875 C 7.078125 -10.867188 7.90625 -8.21875 9.5625 -6.34375 C 11.226562 -4.46875 13.414062 -3.53125 16.125 -3.53125 C 18.195312 -3.53125 19.925781 -4.015625 21.3125 -4.984375 C 22.707031 -5.960938 23.664062 -7.351562 24.1875 -9.15625 L 29.28125 -9.15625 C 28.507812 -6.238281 26.976562 -3.90625 24.6875 -2.15625 C 22.40625 -0.40625 19.550781 0.46875 16.125 0.46875 C 13.414062 0.46875 11.007812 -0.132812 8.90625 -1.34375 C 6.8125 -2.5625 5.175781 -4.28125 4 -6.5 C 2.820312 -8.71875 2.234375 -11.316406 2.234375 -14.296875 Z M 2.234375 -14.296875 "/></g></g></g><g fill="#ecf0f1" fill-opacity="1"><g transform="translate(566.693634, 543.449969)"><g><path d="M 30 -15.34375 C 30 -14.4375 29.945312 -13.484375 29.84375 -12.484375 L 7.078125 -12.484375 C 7.242188 -9.671875 8.203125 -7.472656 9.953125 -5.890625 C 11.703125 -4.316406 13.828125 -3.53125 16.328125 -3.53125 C 18.367188 -3.53125 20.070312 -4.003906 21.4375 -4.953125 C 22.8125 -5.910156 23.78125 -7.1875 24.34375 -8.78125 L 29.4375 -8.78125 C 28.664062 -6.050781 27.132812 -3.828125 24.84375 -2.109375 C 22.5625 -0.390625 19.722656 0.46875 16.328125 0.46875 C 13.617188 0.46875 11.195312 -0.132812 9.0625 -1.34375 C 6.9375 -2.5625 5.265625 -4.285156 4.046875 -6.515625 C 2.835938 -8.753906 2.234375 -11.347656 2.234375 -14.296875 C 2.234375 -17.242188 2.820312 -19.828125 4 -22.046875 C 5.175781 -24.265625 6.832031 -25.972656 8.96875 -27.171875 C 11.101562 -28.367188 13.554688 -28.96875 16.328125 -28.96875 C 19.035156 -28.96875 21.425781 -28.375 23.5 -27.1875 C 25.582031 -26.007812 27.1875 -24.390625 28.3125 -22.328125 C 29.4375 -20.265625 30 -17.9375 30 -15.34375 Z M 25.109375 -16.328125 C 25.109375 -18.128906 24.707031 -19.679688 23.90625 -20.984375 C 23.113281 -22.285156 22.03125 -23.269531 20.65625 -23.9375 C 19.289062 -24.613281 17.78125 -24.953125 16.125 -24.953125 C 13.726562 -24.953125 11.6875 -24.191406 10 -22.671875 C 8.320312 -21.148438 7.363281 -19.035156 7.125 -16.328125 Z M 25.109375 -16.328125 "/></g></g></g><g fill="#ecf0f1" fill-opacity="1"><g transform="translate(604.131148, 543.449969)"><g><path d="M 8.734375 -38.484375 L 8.734375 0 L 4 0 L 4 -38.484375 Z M 8.734375 -38.484375 "/></g></g></g><g clip-path="url(#cac6d84a13)"><g transform="matrix(1, 0, 0, 1, 86, 619)"><g clip-path="url(#c171a392d4)"><g clip-path="url(#c4bc9a0ee1)"><rect x="-402.8" width="2073.6" fill="#27ae60" height="1166.39999" y="-797.199998" fill-opacity="1"/></g></g></g></g><g clip-path="url(#6c7f079a00)"><g clip-path="url(#44c6db17a0)"><g transform="matrix(1, 0, 0, 1, 85, 618)"><g clip-path="url(#a74f6397ea)"><g clip-path="url(#64d8a9ad4c)"><g clip-path="url(#16c8ee9390)"><path fill="#27ae60" d="M 0.398438 0.199219 L 319.191406 0.199219 L 319.191406 10.839844 L 0.398438 10.839844 Z M 0.398438 0.199219 " fill-opacity="1" fill-rule="nonzero"/></g></g></g></g></g></g><g clip-path="url(#98ef9170ae)"><g fill="#7f8c8d" fill-opacity="1"><g transform="translate(86.400002, 683.999986)"><g><path d="M 12.734375 -10.84375 C 12.515625 -9.570312 11.890625 -8.515625 10.859375 -7.671875 C 9.835938 -6.828125 8.441406 -6.40625 6.671875 -6.40625 L 3.71875 -6.40625 L 2.578125 0 L 0.578125 0 L 3.296875 -15.328125 L 8.25 -15.328125 C 9.769531 -15.328125 10.910156 -15 11.671875 -14.34375 C 12.441406 -13.695312 12.828125 -12.832031 12.828125 -11.75 C 12.828125 -11.5625 12.796875 -11.257812 12.734375 -10.84375 Z M 6.953125 -7.984375 C 8.054688 -7.984375 8.914062 -8.234375 9.53125 -8.734375 C 10.144531 -9.242188 10.53125 -9.945312 10.6875 -10.84375 C 10.738281 -11.101562 10.765625 -11.347656 10.765625 -11.578125 C 10.765625 -13.023438 9.832031 -13.75 7.96875 -13.75 L 5.015625 -13.75 L 4 -7.984375 Z M 6.953125 -7.984375 "/></g></g></g></g><g fill="#7f8c8d" fill-opacity="1"><g transform="translate(101.335719, 683.999986)"><g><path d="M 7.9375 -12.25 C 8.945312 -12.25 9.820312 -12.054688 10.5625 -11.671875 C 11.3125 -11.285156 11.878906 -10.742188 12.265625 -10.046875 C 12.648438 -9.347656 12.84375 -8.550781 12.84375 -7.65625 C 12.84375 -7.34375 12.804688 -6.96875 12.734375 -6.53125 C 12.679688 -6.15625 12.585938 -5.757812 12.453125 -5.34375 L 2.8125 -5.34375 C 2.78125 -5.050781 2.765625 -4.835938 2.765625 -4.703125 C 2.765625 -3.691406 3.066406 -2.90625 3.671875 -2.34375 C 4.285156 -1.78125 5.085938 -1.5 6.078125 -1.5 C 6.941406 -1.5 7.695312 -1.695312 8.34375 -2.09375 C 9 -2.5 9.492188 -3.039062 9.828125 -3.71875 L 11.984375 -3.71875 C 11.460938 -2.5625 10.65625 -1.617188 9.5625 -0.890625 C 8.46875 -0.160156 7.203125 0.203125 5.765625 0.203125 C 4.253906 0.203125 3.039062 -0.234375 2.125 -1.109375 C 1.207031 -1.984375 0.75 -3.175781 0.75 -4.6875 C 0.75 -5.113281 0.789062 -5.566406 0.875 -6.046875 C 1.09375 -7.296875 1.539062 -8.390625 2.21875 -9.328125 C 2.894531 -10.265625 3.726562 -10.984375 4.71875 -11.484375 C 5.707031 -11.992188 6.78125 -12.25 7.9375 -12.25 Z M 10.71875 -6.796875 C 10.757812 -7.085938 10.78125 -7.359375 10.78125 -7.609375 C 10.78125 -8.546875 10.484375 -9.269531 9.890625 -9.78125 C 9.296875 -10.300781 8.519531 -10.5625 7.5625 -10.5625 C 6.539062 -10.5625 5.609375 -10.226562 4.765625 -9.5625 C 3.929688 -8.894531 3.367188 -7.972656 3.078125 -6.796875 Z M 10.71875 -6.796875 "/></g></g></g><g fill="#7f8c8d" fill-opacity="1"><g transform="translate(117.173277, 683.999986)"><g><path d="M 8.625 -12.28125 C 9.875 -12.28125 10.867188 -11.945312 11.609375 -11.28125 C 12.359375 -10.613281 12.734375 -9.640625 12.734375 -8.359375 C 12.734375 -7.890625 12.695312 -7.472656 12.625 -7.109375 L 11.375 0 L 9.390625 0 L 10.609375 -6.8125 C 10.660156 -7.125 10.6875 -7.445312 10.6875 -7.78125 C 10.6875 -8.675781 10.441406 -9.359375 9.953125 -9.828125 C 9.460938 -10.296875 8.773438 -10.53125 7.890625 -10.53125 C 6.835938 -10.53125 5.941406 -10.203125 5.203125 -9.546875 C 4.460938 -8.890625 3.984375 -7.929688 3.765625 -6.671875 L 3.765625 -6.703125 L 2.578125 0 L 0.578125 0 L 2.703125 -12.0625 L 4.703125 -12.0625 L 4.40625 -10.3125 C 4.894531 -10.945312 5.515625 -11.429688 6.265625 -11.765625 C 7.015625 -12.109375 7.800781 -12.28125 8.625 -12.28125 Z M 8.625 -12.28125 "/></g></g></g><g fill="#7f8c8d" fill-opacity="1"><g transform="translate(133.450758, 683.999986)"><g><path d="M 7.71875 -12.25 C 8.757812 -12.25 9.628906 -12.019531 10.328125 -11.5625 C 11.035156 -11.113281 11.515625 -10.546875 11.765625 -9.859375 L 12.171875 -12.0625 L 14.1875 -12.0625 L 12.015625 0.265625 C 11.816406 1.359375 11.40625 2.332031 10.78125 3.1875 C 10.164062 4.050781 9.378906 4.722656 8.421875 5.203125 C 7.472656 5.691406 6.421875 5.9375 5.265625 5.9375 C 3.671875 5.9375 2.410156 5.554688 1.484375 4.796875 C 0.566406 4.046875 0.125 3.035156 0.15625 1.765625 L 2.15625 1.765625 C 2.238281 2.492188 2.582031 3.082031 3.1875 3.53125 C 3.800781 3.976562 4.59375 4.203125 5.5625 4.203125 C 6.664062 4.203125 7.628906 3.859375 8.453125 3.171875 C 9.273438 2.484375 9.796875 1.515625 10.015625 0.265625 L 10.453125 -2.265625 C 9.921875 -1.554688 9.222656 -0.96875 8.359375 -0.5 C 7.503906 -0.03125 6.554688 0.203125 5.515625 0.203125 C 4.578125 0.203125 3.75 0 3.03125 -0.40625 C 2.3125 -0.8125 1.75 -1.382812 1.34375 -2.125 C 0.945312 -2.875 0.75 -3.742188 0.75 -4.734375 C 0.75 -5.171875 0.789062 -5.617188 0.875 -6.078125 C 1.09375 -7.304688 1.535156 -8.382812 2.203125 -9.3125 C 2.878906 -10.25 3.695312 -10.972656 4.65625 -11.484375 C 5.613281 -11.992188 6.632812 -12.25 7.71875 -12.25 Z M 11.109375 -6.046875 C 11.171875 -6.359375 11.203125 -6.691406 11.203125 -7.046875 C 11.203125 -8.109375 10.878906 -8.953125 10.234375 -9.578125 C 9.597656 -10.203125 8.789062 -10.515625 7.8125 -10.515625 C 7.0625 -10.515625 6.34375 -10.335938 5.65625 -9.984375 C 4.976562 -9.628906 4.394531 -9.113281 3.90625 -8.4375 C 3.425781 -7.769531 3.109375 -6.984375 2.953125 -6.078125 C 2.890625 -5.765625 2.859375 -5.425781 2.859375 -5.0625 C 2.859375 -3.976562 3.171875 -3.125 3.796875 -2.5 C 4.429688 -1.875 5.238281 -1.5625 6.21875 -1.5625 C 6.96875 -1.5625 7.679688 -1.738281 8.359375 -2.09375 C 9.046875 -2.457031 9.632812 -2.976562 10.125 -3.65625 C 10.625 -4.34375 10.953125 -5.140625 11.109375 -6.046875 Z M 11.109375 -6.046875 "/></g></g></g><g fill="#7f8c8d" fill-opacity="1"><g transform="translate(150.5201, 683.999986)"><g><path d="M 7.9375 -12.25 C 8.945312 -12.25 9.820312 -12.054688 10.5625 -11.671875 C 11.3125 -11.285156 11.878906 -10.742188 12.265625 -10.046875 C 12.648438 -9.347656 12.84375 -8.550781 12.84375 -7.65625 C 12.84375 -7.34375 12.804688 -6.96875 12.734375 -6.53125 C 12.679688 -6.15625 12.585938 -5.757812 12.453125 -5.34375 L 2.8125 -5.34375 C 2.78125 -5.050781 2.765625 -4.835938 2.765625 -4.703125 C 2.765625 -3.691406 3.066406 -2.90625 3.671875 -2.34375 C 4.285156 -1.78125 5.085938 -1.5 6.078125 -1.5 C 6.941406 -1.5 7.695312 -1.695312 8.34375 -2.09375 C 9 -2.5 9.492188 -3.039062 9.828125 -3.71875 L 11.984375 -3.71875 C 11.460938 -2.5625 10.65625 -1.617188 9.5625 -0.890625 C 8.46875 -0.160156 7.203125 0.203125 5.765625 0.203125 C 4.253906 0.203125 3.039062 -0.234375 2.125 -1.109375 C 1.207031 -1.984375 0.75 -3.175781 0.75 -4.6875 C 0.75 -5.113281 0.789062 -5.566406 0.875 -6.046875 C 1.09375 -7.296875 1.539062 -8.390625 2.21875 -9.328125 C 2.894531 -10.265625 3.726562 -10.984375 4.71875 -11.484375 C 5.707031 -11.992188 6.78125 -12.25 7.9375 -12.25 Z M 10.71875 -6.796875 C 10.757812 -7.085938 10.78125 -7.359375 10.78125 -7.609375 C 10.78125 -8.546875 10.484375 -9.269531 9.890625 -9.78125 C 9.296875 -10.300781 8.519531 -10.5625 7.5625 -10.5625 C 6.539062 -10.5625 5.609375 -10.226562 4.765625 -9.5625 C 3.929688 -8.894531 3.367188 -7.972656 3.078125 -6.796875 Z M 10.71875 -6.796875 "/></g></g></g><g fill="#7f8c8d" fill-opacity="1"><g transform="translate(166.357658, 683.999986)"><g><path d="M 4.3125 -9.765625 C 4.789062 -10.554688 5.394531 -11.171875 6.125 -11.609375 C 6.863281 -12.054688 7.703125 -12.28125 8.640625 -12.28125 L 8.265625 -10.203125 L 7.75 -10.203125 C 6.707031 -10.203125 5.835938 -9.921875 5.140625 -9.359375 C 4.441406 -8.804688 3.972656 -7.875 3.734375 -6.5625 L 2.578125 0 L 0.578125 0 L 2.703125 -12.0625 L 4.703125 -12.0625 Z M 4.3125 -9.765625 "/></g></g></g><g fill="#7f8c8d" fill-opacity="1"><g transform="translate(176.76218, 683.999986)"><g><path d="M 3.609375 -3.296875 C 3.566406 -3.078125 3.546875 -2.890625 3.546875 -2.734375 C 3.546875 -2.359375 3.65625 -2.085938 3.875 -1.921875 C 4.101562 -1.765625 4.476562 -1.6875 5 -1.6875 L 6.46875 -1.6875 L 6.15625 0 L 4.359375 0 C 3.398438 0 2.679688 -0.179688 2.203125 -0.546875 C 1.734375 -0.910156 1.5 -1.515625 1.5 -2.359375 C 1.5 -2.679688 1.523438 -2.992188 1.578125 -3.296875 L 2.84375 -10.40625 L 1.296875 -10.40625 L 1.578125 -12.0625 L 3.140625 -12.0625 L 3.671875 -15.09375 L 5.703125 -15.09375 L 5.171875 -12.0625 L 8.296875 -12.0625 L 8.015625 -10.40625 L 4.859375 -10.40625 Z M 3.609375 -3.296875 "/></g></g></g><g fill="#7f8c8d" fill-opacity="1"><g transform="translate(186.968741, 683.999986)"><g><path d="M 4.0625 -14.015625 C 3.75 -14.015625 3.484375 -14.117188 3.265625 -14.328125 C 3.054688 -14.546875 2.953125 -14.816406 2.953125 -15.140625 C 2.953125 -15.578125 3.113281 -15.953125 3.4375 -16.265625 C 3.757812 -16.578125 4.128906 -16.734375 4.546875 -16.734375 C 4.890625 -16.734375 5.160156 -16.628906 5.359375 -16.421875 C 5.566406 -16.222656 5.671875 -15.957031 5.671875 -15.625 C 5.671875 -15.175781 5.507812 -14.796875 5.1875 -14.484375 C 4.863281 -14.171875 4.488281 -14.015625 4.0625 -14.015625 Z M 4.703125 -12.0625 L 2.578125 0 L 0.578125 0 L 2.703125 -12.0625 Z M 4.703125 -12.0625 "/></g></g></g><g fill="#7f8c8d" fill-opacity="1"><g transform="translate(194.579772, 683.999986)"><g><path d="M 0.875 -6.078125 C 1.09375 -7.304688 1.535156 -8.382812 2.203125 -9.3125 C 2.878906 -10.25 3.695312 -10.972656 4.65625 -11.484375 C 5.613281 -11.992188 6.632812 -12.25 7.71875 -12.25 C 8.78125 -12.25 9.65625 -12.019531 10.34375 -11.5625 C 11.03125 -11.113281 11.503906 -10.546875 11.765625 -9.859375 L 12.171875 -12.0625 L 14.1875 -12.0625 L 12.0625 0 L 10.03125 0 L 10.453125 -2.25 C 9.921875 -1.539062 9.222656 -0.953125 8.359375 -0.484375 C 7.492188 -0.0234375 6.539062 0.203125 5.5 0.203125 C 4.5625 0.203125 3.734375 0 3.015625 -0.40625 C 2.296875 -0.8125 1.738281 -1.382812 1.34375 -2.125 C 0.945312 -2.875 0.75 -3.742188 0.75 -4.734375 C 0.75 -5.171875 0.789062 -5.617188 0.875 -6.078125 Z M 11.109375 -6.046875 C 11.171875 -6.359375 11.203125 -6.691406 11.203125 -7.046875 C 11.203125 -8.109375 10.878906 -8.953125 10.234375 -9.578125 C 9.597656 -10.203125 8.789062 -10.515625 7.8125 -10.515625 C 7.0625 -10.515625 6.34375 -10.335938 5.65625 -9.984375 C 4.976562 -9.628906 4.394531 -9.113281 3.90625 -8.4375 C 3.425781 -7.769531 3.109375 -6.984375 2.953125 -6.078125 C 2.890625 -5.765625 2.859375 -5.425781 2.859375 -5.0625 C 2.859375 -3.976562 3.171875 -3.125 3.796875 -2.5 C 4.429688 -1.875 5.238281 -1.5625 6.21875 -1.5625 C 6.96875 -1.5625 7.679688 -1.738281 8.359375 -2.09375 C 9.046875 -2.457031 9.632812 -2.976562 10.125 -3.65625 C 10.625 -4.34375 10.953125 -5.140625 11.109375 -6.046875 Z M 11.109375 -6.046875 "/></g></g></g><g fill="#7f8c8d" fill-opacity="1"><g transform="translate(211.649114, 683.999986)"><g><path d="M 8.625 -12.28125 C 9.875 -12.28125 10.867188 -11.945312 11.609375 -11.28125 C 12.359375 -10.613281 12.734375 -9.640625 12.734375 -8.359375 C 12.734375 -7.890625 12.695312 -7.472656 12.625 -7.109375 L 11.375 0 L 9.390625 0 L 10.609375 -6.8125 C 10.660156 -7.125 10.6875 -7.445312 10.6875 -7.78125 C 10.6875 -8.675781 10.441406 -9.359375 9.953125 -9.828125 C 9.460938 -10.296875 8.773438 -10.53125 7.890625 -10.53125 C 6.835938 -10.53125 5.941406 -10.203125 5.203125 -9.546875 C 4.460938 -8.890625 3.984375 -7.929688 3.765625 -6.671875 L 3.765625 -6.703125 L 2.578125 0 L 0.578125 0 L 2.703125 -12.0625 L 4.703125 -12.0625 L 4.40625 -10.3125 C 4.894531 -10.945312 5.515625 -11.429688 6.265625 -11.765625 C 7.015625 -12.109375 7.800781 -12.28125 8.625 -12.28125 Z M 8.625 -12.28125 "/></g></g></g><g fill="#7f8c8d" fill-opacity="1"><g transform="translate(245.446869, 683.999986)"><g><path d="M 4.203125 -4.640625 C 3.546875 -4.640625 3.003906 -4.847656 2.578125 -5.265625 C 2.160156 -5.679688 1.953125 -6.207031 1.953125 -6.84375 C 1.953125 -7.394531 2.101562 -7.914062 2.40625 -8.40625 C 2.707031 -8.90625 3.109375 -9.300781 3.609375 -9.59375 C 4.109375 -9.882812 4.628906 -10.03125 5.171875 -10.03125 C 5.847656 -10.03125 6.394531 -9.820312 6.8125 -9.40625 C 7.238281 -8.988281 7.453125 -8.457031 7.453125 -7.8125 C 7.453125 -7.25 7.300781 -6.722656 7 -6.234375 C 6.707031 -5.742188 6.304688 -5.351562 5.796875 -5.0625 C 5.285156 -4.78125 4.753906 -4.640625 4.203125 -4.640625 Z M 4.203125 -4.640625 "/></g></g></g><g fill="#7f8c8d" fill-opacity="1"><g transform="translate(274.23984, 683.999986)"><g><path d="M 5.8125 0.15625 C 4.382812 0.15625 3.226562 -0.179688 2.34375 -0.859375 C 1.457031 -1.546875 1.015625 -2.460938 1.015625 -3.609375 C 1.015625 -3.828125 1.019531 -3.988281 1.03125 -4.09375 L 3.015625 -4.09375 C 2.972656 -3.375 3.191406 -2.753906 3.671875 -2.234375 C 4.160156 -1.722656 4.898438 -1.46875 5.890625 -1.46875 C 6.890625 -1.46875 7.679688 -1.695312 8.265625 -2.15625 C 8.859375 -2.613281 9.15625 -3.25 9.15625 -4.0625 C 9.15625 -4.5625 9.007812 -4.984375 8.71875 -5.328125 C 8.4375 -5.679688 8.085938 -5.96875 7.671875 -6.1875 C 7.253906 -6.414062 6.6875 -6.671875 5.96875 -6.953125 C 5.082031 -7.304688 4.367188 -7.632812 3.828125 -7.9375 C 3.296875 -8.25 2.847656 -8.664062 2.484375 -9.1875 C 2.117188 -9.71875 1.953125 -10.390625 1.984375 -11.203125 C 1.984375 -12.046875 2.207031 -12.796875 2.65625 -13.453125 C 3.113281 -14.117188 3.738281 -14.628906 4.53125 -14.984375 C 5.332031 -15.347656 6.25 -15.53125 7.28125 -15.53125 C 8.28125 -15.53125 9.140625 -15.359375 9.859375 -15.015625 C 10.585938 -14.679688 11.132812 -14.210938 11.5 -13.609375 C 11.875 -13.015625 12.035156 -12.34375 11.984375 -11.59375 L 9.90625 -11.59375 C 9.925781 -11.976562 9.835938 -12.34375 9.640625 -12.6875 C 9.441406 -13.039062 9.132812 -13.328125 8.71875 -13.546875 C 8.300781 -13.765625 7.785156 -13.875 7.171875 -13.875 C 6.210938 -13.875 5.441406 -13.648438 4.859375 -13.203125 C 4.285156 -12.765625 4 -12.15625 4 -11.375 C 4 -10.914062 4.132812 -10.519531 4.40625 -10.1875 C 4.675781 -9.863281 5.015625 -9.585938 5.421875 -9.359375 C 5.835938 -9.128906 6.40625 -8.863281 7.125 -8.5625 C 7.988281 -8.195312 8.695312 -7.851562 9.25 -7.53125 C 9.800781 -7.21875 10.265625 -6.796875 10.640625 -6.265625 C 11.023438 -5.742188 11.21875 -5.085938 11.21875 -4.296875 C 11.21875 -3.441406 11 -2.679688 10.5625 -2.015625 C 10.125 -1.347656 9.492188 -0.816406 8.671875 -0.421875 C 7.847656 -0.0351562 6.894531 0.15625 5.8125 0.15625 Z M 5.8125 0.15625 "/></g></g></g><g fill="#7f8c8d" fill-opacity="1"><g transform="translate(289.241545, 683.999986)"><g><path d="M 4.0625 -14.015625 C 3.75 -14.015625 3.484375 -14.117188 3.265625 -14.328125 C 3.054688 -14.546875 2.953125 -14.816406 2.953125 -15.140625 C 2.953125 -15.578125 3.113281 -15.953125 3.4375 -16.265625 C 3.757812 -16.578125 4.128906 -16.734375 4.546875 -16.734375 C 4.890625 -16.734375 5.160156 -16.628906 5.359375 -16.421875 C 5.566406 -16.222656 5.671875 -15.957031 5.671875 -15.625 C 5.671875 -15.175781 5.507812 -14.796875 5.1875 -14.484375 C 4.863281 -14.171875 4.488281 -14.015625 4.0625 -14.015625 Z M 4.703125 -12.0625 L 2.578125 0 L 0.578125 0 L 2.703125 -12.0625 Z M 4.703125 -12.0625 "/></g></g></g><g fill="#7f8c8d" fill-opacity="1"><g transform="translate(296.852575, 683.999986)"><g><path d="M 8.625 -12.28125 C 9.875 -12.28125 10.867188 -11.945312 11.609375 -11.28125 C 12.359375 -10.613281 12.734375 -9.640625 12.734375 -8.359375 C 12.734375 -7.890625 12.695312 -7.472656 12.625 -7.109375 L 11.375 0 L 9.390625 0 L 10.609375 -6.8125 C 10.660156 -7.125 10.6875 -7.445312 10.6875 -7.78125 C 10.6875 -8.675781 10.441406 -9.359375 9.953125 -9.828125 C 9.460938 -10.296875 8.773438 -10.53125 7.890625 -10.53125 C 6.835938 -10.53125 5.941406 -10.203125 5.203125 -9.546875 C 4.460938 -8.890625 3.984375 -7.929688 3.765625 -6.671875 L 3.765625 -6.703125 L 2.578125 0 L 0.578125 0 L 2.703125 -12.0625 L 4.703125 -12.0625 L 4.40625 -10.3125 C 4.894531 -10.945312 5.515625 -11.429688 6.265625 -11.765625 C 7.015625 -12.109375 7.800781 -12.28125 8.625 -12.28125 Z M 8.625 -12.28125 "/></g></g></g><g fill="#7f8c8d" fill-opacity="1"><g transform="translate(313.130055, 683.999986)"><g><path d="M 3.609375 -3.296875 C 3.566406 -3.078125 3.546875 -2.890625 3.546875 -2.734375 C 3.546875 -2.359375 3.65625 -2.085938 3.875 -1.921875 C 4.101562 -1.765625 4.476562 -1.6875 5 -1.6875 L 6.46875 -1.6875 L 6.15625 0 L 4.359375 0 C 3.398438 0 2.679688 -0.179688 2.203125 -0.546875 C 1.734375 -0.910156 1.5 -1.515625 1.5 -2.359375 C 1.5 -2.679688 1.523438 -2.992188 1.578125 -3.296875 L 2.84375 -10.40625 L 1.296875 -10.40625 L 1.578125 -12.0625 L 3.140625 -12.0625 L 3.671875 -15.09375 L 5.703125 -15.09375 L 5.171875 -12.0625 L 8.296875 -12.0625 L 8.015625 -10.40625 L 4.859375 -10.40625 Z M 3.609375 -3.296875 "/></g></g></g><g fill="#7f8c8d" fill-opacity="1"><g transform="translate(323.336617, 683.999986)"><g><path d="M 0.875 -6.078125 C 1.09375 -7.304688 1.535156 -8.382812 2.203125 -9.3125 C 2.878906 -10.25 3.695312 -10.972656 4.65625 -11.484375 C 5.613281 -11.992188 6.632812 -12.25 7.71875 -12.25 C 8.78125 -12.25 9.65625 -12.019531 10.34375 -11.5625 C 11.03125 -11.113281 11.503906 -10.546875 11.765625 -9.859375 L 12.171875 -12.0625 L 14.1875 -12.0625 L 12.0625 0 L 10.03125 0 L 10.453125 -2.25 C 9.921875 -1.539062 9.222656 -0.953125 8.359375 -0.484375 C 7.492188 -0.0234375 6.539062 0.203125 5.5 0.203125 C 4.5625 0.203125 3.734375 0 3.015625 -0.40625 C 2.296875 -0.8125 1.738281 -1.382812 1.34375 -2.125 C 0.945312 -2.875 0.75 -3.742188 0.75 -4.734375 C 0.75 -5.171875 0.789062 -5.617188 0.875 -6.078125 Z M 11.109375 -6.046875 C 11.171875 -6.359375 11.203125 -6.691406 11.203125 -7.046875 C 11.203125 -8.109375 10.878906 -8.953125 10.234375 -9.578125 C 9.597656 -10.203125 8.789062 -10.515625 7.8125 -10.515625 C 7.0625 -10.515625 6.34375 -10.335938 5.65625 -9.984375 C 4.976562 -9.628906 4.394531 -9.113281 3.90625 -8.4375 C 3.425781 -7.769531 3.109375 -6.984375 2.953125 -6.078125 C 2.890625 -5.765625 2.859375 -5.425781 2.859375 -5.0625 C 2.859375 -3.976562 3.171875 -3.125 3.796875 -2.5 C 4.429688 -1.875 5.238281 -1.5625 6.21875 -1.5625 C 6.96875 -1.5625 7.679688 -1.738281 8.359375 -2.09375 C 9.046875 -2.457031 9.632812 -2.976562 10.125 -3.65625 C 10.625 -4.34375 10.953125 -5.140625 11.109375 -6.046875 Z M 11.109375 -6.046875 "/></g></g></g><g fill="#7f8c8d" fill-opacity="1"><g transform="translate(340.405959, 683.999986)"><g><path d="M 5.40625 -6.03125 L 10.03125 0 L 7.296875 0 L 3.515625 -5.296875 L 2.578125 0 L 0.578125 0 L 3.453125 -16.28125 L 5.453125 -16.28125 L 3.765625 -6.734375 L 9.34375 -12.0625 L 12.125 -12.0625 Z M 5.40625 -6.03125 "/></g></g></g><g fill="#7f8c8d" fill-opacity="1"><g transform="translate(353.933928, 683.999986)"><g><path d="M 4.8125 0.203125 C 3.550781 0.203125 2.515625 -0.0976562 1.703125 -0.703125 C 0.898438 -1.304688 0.5 -2.113281 0.5 -3.125 C 0.5 -3.3125 0.507812 -3.453125 0.53125 -3.546875 L 2.484375 -3.546875 C 2.421875 -2.910156 2.609375 -2.394531 3.046875 -2 C 3.484375 -1.601562 4.109375 -1.40625 4.921875 -1.40625 C 5.742188 -1.40625 6.40625 -1.5625 6.90625 -1.875 C 7.414062 -2.195312 7.671875 -2.644531 7.671875 -3.21875 C 7.671875 -3.695312 7.46875 -4.078125 7.0625 -4.359375 C 6.65625 -4.640625 6.023438 -4.941406 5.171875 -5.265625 C 4.421875 -5.535156 3.800781 -5.796875 3.3125 -6.046875 C 2.832031 -6.296875 2.421875 -6.644531 2.078125 -7.09375 C 1.742188 -7.539062 1.578125 -8.109375 1.578125 -8.796875 C 1.578125 -9.472656 1.769531 -10.070312 2.15625 -10.59375 C 2.550781 -11.125 3.097656 -11.53125 3.796875 -11.8125 C 4.492188 -12.101562 5.289062 -12.25 6.1875 -12.25 C 7.414062 -12.25 8.425781 -11.941406 9.21875 -11.328125 C 10.007812 -10.710938 10.40625 -9.90625 10.40625 -8.90625 C 10.40625 -8.71875 10.398438 -8.570312 10.390625 -8.46875 L 8.46875 -8.46875 L 8.484375 -8.734375 C 8.484375 -9.316406 8.257812 -9.78125 7.8125 -10.125 C 7.375 -10.46875 6.785156 -10.640625 6.046875 -10.640625 C 5.328125 -10.640625 4.738281 -10.476562 4.28125 -10.15625 C 3.820312 -9.84375 3.59375 -9.410156 3.59375 -8.859375 C 3.59375 -8.347656 3.800781 -7.945312 4.21875 -7.65625 C 4.644531 -7.363281 5.304688 -7.039062 6.203125 -6.6875 C 6.953125 -6.394531 7.550781 -6.125 8 -5.875 C 8.457031 -5.632812 8.847656 -5.300781 9.171875 -4.875 C 9.492188 -4.457031 9.65625 -3.925781 9.65625 -3.28125 C 9.65625 -2.570312 9.445312 -1.953125 9.03125 -1.421875 C 8.613281 -0.898438 8.035156 -0.5 7.296875 -0.21875 C 6.566406 0.0625 5.738281 0.203125 4.8125 0.203125 Z M 4.8125 0.203125 "/></g></g></g><g fill="#7f8c8d" fill-opacity="1"><g transform="translate(385.146084, 683.999986)"><g><path d="M 4.203125 -4.640625 C 3.546875 -4.640625 3.003906 -4.847656 2.578125 -5.265625 C 2.160156 -5.679688 1.953125 -6.207031 1.953125 -6.84375 C 1.953125 -7.394531 2.101562 -7.914062 2.40625 -8.40625 C 2.707031 -8.90625 3.109375 -9.300781 3.609375 -9.59375 C 4.109375 -9.882812 4.628906 -10.03125 5.171875 -10.03125 C 5.847656 -10.03125 6.394531 -9.820312 6.8125 -9.40625 C 7.238281 -8.988281 7.453125 -8.457031 7.453125 -7.8125 C 7.453125 -7.25 7.300781 -6.722656 7 -6.234375 C 6.707031 -5.742188 6.304688 -5.351562 5.796875 -5.0625 C 5.285156 -4.78125 4.753906 -4.640625 4.203125 -4.640625 Z M 4.203125 -4.640625 "/></g></g></g><g fill="#7f8c8d" fill-opacity="1"><g transform="translate(413.939048, 683.999986)"><g><path d="M 5.296875 -15.328125 L 2.578125 0 L 0.578125 0 L 3.296875 -15.328125 Z M 5.296875 -15.328125 "/></g></g></g><g fill="#7f8c8d" fill-opacity="1"><g transform="translate(421.550078, 683.999986)"><g><path d="M 11.953125 -15.328125 L 11.65625 -13.765625 L 5.015625 -13.765625 L 4.09375 -8.515625 L 9.5 -8.515625 L 9.21875 -6.953125 L 3.8125 -6.953125 L 2.578125 0 L 0.578125 0 L 3.296875 -15.328125 Z M 11.953125 -15.328125 "/></g></g></g><g fill="#7f8c8d" fill-opacity="1"><g transform="translate(443.590917, 683.999986)"><g><path d="M 12.71875 -15.328125 L 12.4375 -13.765625 L 8.25 -13.765625 L 5.828125 0 L 3.828125 0 L 6.25 -13.765625 L 2.0625 -13.765625 L 2.359375 -15.328125 Z M 12.71875 -15.328125 "/></g></g></g><g fill="#7f8c8d" fill-opacity="1"><g transform="translate(457.690781, 683.999986)"><g><path d="M 13.390625 -12.0625 L 11.265625 0 L 9.265625 0 L 9.5625 -1.765625 C 9.082031 -1.148438 8.46875 -0.671875 7.71875 -0.328125 C 6.96875 0.00390625 6.191406 0.171875 5.390625 0.171875 C 4.128906 0.171875 3.117188 -0.164062 2.359375 -0.84375 C 1.609375 -1.53125 1.234375 -2.507812 1.234375 -3.78125 C 1.234375 -4.101562 1.269531 -4.507812 1.34375 -5 L 2.59375 -12.0625 L 4.578125 -12.0625 L 3.390625 -5.265625 C 3.328125 -4.953125 3.296875 -4.628906 3.296875 -4.296875 C 3.296875 -3.398438 3.539062 -2.71875 4.03125 -2.25 C 4.53125 -1.789062 5.21875 -1.5625 6.09375 -1.5625 C 7.144531 -1.5625 8.039062 -1.890625 8.78125 -2.546875 C 9.53125 -3.210938 10.003906 -4.175781 10.203125 -5.4375 L 10.203125 -5.375 L 11.390625 -12.0625 Z M 13.390625 -12.0625 "/></g></g></g><g fill="#7f8c8d" fill-opacity="1"><g transform="translate(473.968262, 683.999986)"><g><path d="M 8.625 -12.28125 C 9.875 -12.28125 10.867188 -11.945312 11.609375 -11.28125 C 12.359375 -10.613281 12.734375 -9.640625 12.734375 -8.359375 C 12.734375 -7.890625 12.695312 -7.472656 12.625 -7.109375 L 11.375 0 L 9.390625 0 L 10.609375 -6.8125 C 10.660156 -7.125 10.6875 -7.445312 10.6875 -7.78125 C 10.6875 -8.675781 10.441406 -9.359375 9.953125 -9.828125 C 9.460938 -10.296875 8.773438 -10.53125 7.890625 -10.53125 C 6.835938 -10.53125 5.941406 -10.203125 5.203125 -9.546875 C 4.460938 -8.890625 3.984375 -7.929688 3.765625 -6.671875 L 3.765625 -6.703125 L 2.578125 0 L 0.578125 0 L 2.703125 -12.0625 L 4.703125 -12.0625 L 4.40625 -10.3125 C 4.894531 -10.945312 5.515625 -11.429688 6.265625 -11.765625 C 7.015625 -12.109375 7.800781 -12.28125 8.625 -12.28125 Z M 8.625 -12.28125 "/></g></g></g><g fill="#7f8c8d" fill-opacity="1"><g transform="translate(490.245742, 683.999986)"><g><path d="M 7.71875 -12.25 C 8.757812 -12.25 9.628906 -12.019531 10.328125 -11.5625 C 11.035156 -11.113281 11.515625 -10.546875 11.765625 -9.859375 L 12.171875 -12.0625 L 14.1875 -12.0625 L 12.015625 0.265625 C 11.816406 1.359375 11.40625 2.332031 10.78125 3.1875 C 10.164062 4.050781 9.378906 4.722656 8.421875 5.203125 C 7.472656 5.691406 6.421875 5.9375 5.265625 5.9375 C 3.671875 5.9375 2.410156 5.554688 1.484375 4.796875 C 0.566406 4.046875 0.125 3.035156 0.15625 1.765625 L 2.15625 1.765625 C 2.238281 2.492188 2.582031 3.082031 3.1875 3.53125 C 3.800781 3.976562 4.59375 4.203125 5.5625 4.203125 C 6.664062 4.203125 7.628906 3.859375 8.453125 3.171875 C 9.273438 2.484375 9.796875 1.515625 10.015625 0.265625 L 10.453125 -2.265625 C 9.921875 -1.554688 9.222656 -0.96875 8.359375 -0.5 C 7.503906 -0.03125 6.554688 0.203125 5.515625 0.203125 C 4.578125 0.203125 3.75 0 3.03125 -0.40625 C 2.3125 -0.8125 1.75 -1.382812 1.34375 -2.125 C 0.945312 -2.875 0.75 -3.742188 0.75 -4.734375 C 0.75 -5.171875 0.789062 -5.617188 0.875 -6.078125 C 1.09375 -7.304688 1.535156 -8.382812 2.203125 -9.3125 C 2.878906 -10.25 3.695312 -10.972656 4.65625 -11.484375 C 5.613281 -11.992188 6.632812 -12.25 7.71875 -12.25 Z M 11.109375 -6.046875 C 11.171875 -6.359375 11.203125 -6.691406 11.203125 -7.046875 C 11.203125 -8.109375 10.878906 -8.953125 10.234375 -9.578125 C 9.597656 -10.203125 8.789062 -10.515625 7.8125 -10.515625 C 7.0625 -10.515625 6.34375 -10.335938 5.65625 -9.984375 C 4.976562 -9.628906 4.394531 -9.113281 3.90625 -8.4375 C 3.425781 -7.769531 3.109375 -6.984375 2.953125 -6.078125 C 2.890625 -5.765625 2.859375 -5.425781 2.859375 -5.0625 C 2.859375 -3.976562 3.171875 -3.125 3.796875 -2.5 C 4.429688 -1.875 5.238281 -1.5625 6.21875 -1.5625 C 6.96875 -1.5625 7.679688 -1.738281 8.359375 -2.09375 C 9.046875 -2.457031 9.632812 -2.976562 10.125 -3.65625 C 10.625 -4.34375 10.953125 -5.140625 11.109375 -6.046875 Z M 11.109375 -6.046875 "/></g></g></g><g fill="#7f8c8d" fill-opacity="1"><g transform="translate(507.315085, 683.999986)"><g><path d="M 7.71875 -12.25 C 8.757812 -12.25 9.628906 -12.019531 10.328125 -11.5625 C 11.035156 -11.113281 11.515625 -10.546875 11.765625 -9.859375 L 12.171875 -12.0625 L 14.1875 -12.0625 L 12.015625 0.265625 C 11.816406 1.359375 11.40625 2.332031 10.78125 3.1875 C 10.164062 4.050781 9.378906 4.722656 8.421875 5.203125 C 7.472656 5.691406 6.421875 5.9375 5.265625 5.9375 C 3.671875 5.9375 2.410156 5.554688 1.484375 4.796875 C 0.566406 4.046875 0.125 3.035156 0.15625 1.765625 L 2.15625 1.765625 C 2.238281 2.492188 2.582031 3.082031 3.1875 3.53125 C 3.800781 3.976562 4.59375 4.203125 5.5625 4.203125 C 6.664062 4.203125 7.628906 3.859375 8.453125 3.171875 C 9.273438 2.484375 9.796875 1.515625 10.015625 0.265625 L 10.453125 -2.265625 C 9.921875 -1.554688 9.222656 -0.96875 8.359375 -0.5 C 7.503906 -0.03125 6.554688 0.203125 5.515625 0.203125 C 4.578125 0.203125 3.75 0 3.03125 -0.40625 C 2.3125 -0.8125 1.75 -1.382812 1.34375 -2.125 C 0.945312 -2.875 0.75 -3.742188 0.75 -4.734375 C 0.75 -5.171875 0.789062 -5.617188 0.875 -6.078125 C 1.09375 -7.304688 1.535156 -8.382812 2.203125 -9.3125 C 2.878906 -10.25 3.695312 -10.972656 4.65625 -11.484375 C 5.613281 -11.992188 6.632812 -12.25 7.71875 -12.25 Z M 11.109375 -6.046875 C 11.171875 -6.359375 11.203125 -6.691406 11.203125 -7.046875 C 11.203125 -8.109375 10.878906 -8.953125 10.234375 -9.578125 C 9.597656 -10.203125 8.789062 -10.515625 7.8125 -10.515625 C 7.0625 -10.515625 6.34375 -10.335938 5.65625 -9.984375 C 4.976562 -9.628906 4.394531 -9.113281 3.90625 -8.4375 C 3.425781 -7.769531 3.109375 -6.984375 2.953125 -6.078125 C 2.890625 -5.765625 2.859375 -5.425781 2.859375 -5.0625 C 2.859375 -3.976562 3.171875 -3.125 3.796875 -2.5 C 4.429688 -1.875 5.238281 -1.5625 6.21875 -1.5625 C 6.96875 -1.5625 7.679688 -1.738281 8.359375 -2.09375 C 9.046875 -2.457031 9.632812 -2.976562 10.125 -3.65625 C 10.625 -4.34375 10.953125 -5.140625 11.109375 -6.046875 Z M 11.109375 -6.046875 "/></g></g></g><g fill="#7f8c8d" fill-opacity="1"><g transform="translate(524.384427, 683.999986)"><g><path d="M 0.875 -6.078125 C 1.09375 -7.304688 1.535156 -8.382812 2.203125 -9.3125 C 2.878906 -10.25 3.695312 -10.972656 4.65625 -11.484375 C 5.613281 -11.992188 6.632812 -12.25 7.71875 -12.25 C 8.78125 -12.25 9.65625 -12.019531 10.34375 -11.5625 C 11.03125 -11.113281 11.503906 -10.546875 11.765625 -9.859375 L 12.171875 -12.0625 L 14.1875 -12.0625 L 12.0625 0 L 10.03125 0 L 10.453125 -2.25 C 9.921875 -1.539062 9.222656 -0.953125 8.359375 -0.484375 C 7.492188 -0.0234375 6.539062 0.203125 5.5 0.203125 C 4.5625 0.203125 3.734375 0 3.015625 -0.40625 C 2.296875 -0.8125 1.738281 -1.382812 1.34375 -2.125 C 0.945312 -2.875 0.75 -3.742188 0.75 -4.734375 C 0.75 -5.171875 0.789062 -5.617188 0.875 -6.078125 Z M 11.109375 -6.046875 C 11.171875 -6.359375 11.203125 -6.691406 11.203125 -7.046875 C 11.203125 -8.109375 10.878906 -8.953125 10.234375 -9.578125 C 9.597656 -10.203125 8.789062 -10.515625 7.8125 -10.515625 C 7.0625 -10.515625 6.34375 -10.335938 5.65625 -9.984375 C 4.976562 -9.628906 4.394531 -9.113281 3.90625 -8.4375 C 3.425781 -7.769531 3.109375 -6.984375 2.953125 -6.078125 C 2.890625 -5.765625 2.859375 -5.425781 2.859375 -5.0625 C 2.859375 -3.976562 3.171875 -3.125 3.796875 -2.5 C 4.429688 -1.875 5.238281 -1.5625 6.21875 -1.5625 C 6.96875 -1.5625 7.679688 -1.738281 8.359375 -2.09375 C 9.046875 -2.457031 9.632812 -2.976562 10.125 -3.65625 C 10.625 -4.34375 10.953125 -5.140625 11.109375 -6.046875 Z M 11.109375 -6.046875 "/></g></g></g><g fill="#7f8c8d" fill-opacity="1"><g transform="translate(541.45377, 683.999986)"><g><path d="M 5.453125 -16.28125 L 2.578125 0 L 0.578125 0 L 3.453125 -16.28125 Z M 5.453125 -16.28125 "/></g></g></g><g fill="#7f8c8d" fill-opacity="1"><g transform="translate(566.587478, 683.999986)"><g><path d="M 4.203125 -4.640625 C 3.546875 -4.640625 3.003906 -4.847656 2.578125 -5.265625 C 2.160156 -5.679688 1.953125 -6.207031 1.953125 -6.84375 C 1.953125 -7.394531 2.101562 -7.914062 2.40625 -8.40625 C 2.707031 -8.90625 3.109375 -9.300781 3.609375 -9.59375 C 4.109375 -9.882812 4.628906 -10.03125 5.171875 -10.03125 C 5.847656 -10.03125 6.394531 -9.820312 6.8125 -9.40625 C 7.238281 -8.988281 7.453125 -8.457031 7.453125 -7.8125 C 7.453125 -7.25 7.300781 -6.722656 7 -6.234375 C 6.707031 -5.742188 6.304688 -5.351562 5.796875 -5.0625 C 5.285156 -4.78125 4.753906 -4.640625 4.203125 -4.640625 Z M 4.203125 -4.640625 "/></g></g></g><g fill="#7f8c8d" fill-opacity="1"><g transform="translate(595.380449, 683.999986)"><g><path d="M 12.625 0 L 10.625 0 L 4.75 -12.203125 L 2.578125 0 L 0.578125 0 L 3.296875 -15.359375 L 5.296875 -15.359375 L 11.203125 -3.171875 L 13.359375 -15.359375 L 15.359375 -15.359375 Z M 12.625 0 "/></g></g></g><g fill="#7f8c8d" fill-opacity="1"><g transform="translate(613.043683, 683.999986)"><g><path d="M 7.9375 -12.25 C 8.945312 -12.25 9.820312 -12.054688 10.5625 -11.671875 C 11.3125 -11.285156 11.878906 -10.742188 12.265625 -10.046875 C 12.648438 -9.347656 12.84375 -8.550781 12.84375 -7.65625 C 12.84375 -7.34375 12.804688 -6.96875 12.734375 -6.53125 C 12.679688 -6.15625 12.585938 -5.757812 12.453125 -5.34375 L 2.8125 -5.34375 C 2.78125 -5.050781 2.765625 -4.835938 2.765625 -4.703125 C 2.765625 -3.691406 3.066406 -2.90625 3.671875 -2.34375 C 4.285156 -1.78125 5.085938 -1.5 6.078125 -1.5 C 6.941406 -1.5 7.695312 -1.695312 8.34375 -2.09375 C 9 -2.5 9.492188 -3.039062 9.828125 -3.71875 L 11.984375 -3.71875 C 11.460938 -2.5625 10.65625 -1.617188 9.5625 -0.890625 C 8.46875 -0.160156 7.203125 0.203125 5.765625 0.203125 C 4.253906 0.203125 3.039062 -0.234375 2.125 -1.109375 C 1.207031 -1.984375 0.75 -3.175781 0.75 -4.6875 C 0.75 -5.113281 0.789062 -5.566406 0.875 -6.046875 C 1.09375 -7.296875 1.539062 -8.390625 2.21875 -9.328125 C 2.894531 -10.265625 3.726562 -10.984375 4.71875 -11.484375 C 5.707031 -11.992188 6.78125 -12.25 7.9375 -12.25 Z M 10.71875 -6.796875 C 10.757812 -7.085938 10.78125 -7.359375 10.78125 -7.609375 C 10.78125 -8.546875 10.484375 -9.269531 9.890625 -9.78125 C 9.296875 -10.300781 8.519531 -10.5625 7.5625 -10.5625 C 6.539062 -10.5625 5.609375 -10.226562 4.765625 -9.5625 C 3.929688 -8.894531 3.367188 -7.972656 3.078125 -6.796875 Z M 10.71875 -6.796875 "/></g></g></g><g fill="#7f8c8d" fill-opacity="1"><g transform="translate(628.881241, 683.999986)"><g><path d="M 4.8125 0.203125 C 3.550781 0.203125 2.515625 -0.0976562 1.703125 -0.703125 C 0.898438 -1.304688 0.5 -2.113281 0.5 -3.125 C 0.5 -3.3125 0.507812 -3.453125 0.53125 -3.546875 L 2.484375 -3.546875 C 2.421875 -2.910156 2.609375 -2.394531 3.046875 -2 C 3.484375 -1.601562 4.109375 -1.40625 4.921875 -1.40625 C 5.742188 -1.40625 6.40625 -1.5625 6.90625 -1.875 C 7.414062 -2.195312 7.671875 -2.644531 7.671875 -3.21875 C 7.671875 -3.695312 7.46875 -4.078125 7.0625 -4.359375 C 6.65625 -4.640625 6.023438 -4.941406 5.171875 -5.265625 C 4.421875 -5.535156 3.800781 -5.796875 3.3125 -6.046875 C 2.832031 -6.296875 2.421875 -6.644531 2.078125 -7.09375 C 1.742188 -7.539062 1.578125 -8.109375 1.578125 -8.796875 C 1.578125 -9.472656 1.769531 -10.070312 2.15625 -10.59375 C 2.550781 -11.125 3.097656 -11.53125 3.796875 -11.8125 C 4.492188 -12.101562 5.289062 -12.25 6.1875 -12.25 C 7.414062 -12.25 8.425781 -11.941406 9.21875 -11.328125 C 10.007812 -10.710938 10.40625 -9.90625 10.40625 -8.90625 C 10.40625 -8.71875 10.398438 -8.570312 10.390625 -8.46875 L 8.46875 -8.46875 L 8.484375 -8.734375 C 8.484375 -9.316406 8.257812 -9.78125 7.8125 -10.125 C 7.375 -10.46875 6.785156 -10.640625 6.046875 -10.640625 C 5.328125 -10.640625 4.738281 -10.476562 4.28125 -10.15625 C 3.820312 -9.84375 3.59375 -9.410156 3.59375 -8.859375 C 3.59375 -8.347656 3.800781 -7.945312 4.21875 -7.65625 C 4.644531 -7.363281 5.304688 -7.039062 6.203125 -6.6875 C 6.953125 -6.394531 7.550781 -6.125 8 -5.875 C 8.457031 -5.632812 8.847656 -5.300781 9.171875 -4.875 C 9.492188 -4.457031 9.65625 -3.925781 9.65625 -3.28125 C 9.65625 -2.570312 9.445312 -1.953125 9.03125 -1.421875 C 8.613281 -0.898438 8.035156 -0.5 7.296875 -0.21875 C 6.566406 0.0625 5.738281 0.203125 4.8125 0.203125 Z M 4.8125 0.203125 "/></g></g></g><g fill="#7f8c8d" fill-opacity="1"><g transform="translate(642.563178, 683.999986)"><g><path d="M 3.609375 -3.296875 C 3.566406 -3.078125 3.546875 -2.890625 3.546875 -2.734375 C 3.546875 -2.359375 3.65625 -2.085938 3.875 -1.921875 C 4.101562 -1.765625 4.476562 -1.6875 5 -1.6875 L 6.46875 -1.6875 L 6.15625 0 L 4.359375 0 C 3.398438 0 2.679688 -0.179688 2.203125 -0.546875 C 1.734375 -0.910156 1.5 -1.515625 1.5 -2.359375 C 1.5 -2.679688 1.523438 -2.992188 1.578125 -3.296875 L 2.84375 -10.40625 L 1.296875 -10.40625 L 1.578125 -12.0625 L 3.140625 -12.0625 L 3.671875 -15.09375 L 5.703125 -15.09375 L 5.171875 -12.0625 L 8.296875 -12.0625 L 8.015625 -10.40625 L 4.859375 -10.40625 Z M 3.609375 -3.296875 "/></g></g></g><g fill="#7f8c8d" fill-opacity="1"><g transform="translate(652.76974, 683.999986)"><g><path d="M 7.9375 -12.25 C 8.945312 -12.25 9.820312 -12.054688 10.5625 -11.671875 C 11.3125 -11.285156 11.878906 -10.742188 12.265625 -10.046875 C 12.648438 -9.347656 12.84375 -8.550781 12.84375 -7.65625 C 12.84375 -7.34375 12.804688 -6.96875 12.734375 -6.53125 C 12.679688 -6.15625 12.585938 -5.757812 12.453125 -5.34375 L 2.8125 -5.34375 C 2.78125 -5.050781 2.765625 -4.835938 2.765625 -4.703125 C 2.765625 -3.691406 3.066406 -2.90625 3.671875 -2.34375 C 4.285156 -1.78125 5.085938 -1.5 6.078125 -1.5 C 6.941406 -1.5 7.695312 -1.695312 8.34375 -2.09375 C 9 -2.5 9.492188 -3.039062 9.828125 -3.71875 L 11.984375 -3.71875 C 11.460938 -2.5625 10.65625 -1.617188 9.5625 -0.890625 C 8.46875 -0.160156 7.203125 0.203125 5.765625 0.203125 C 4.253906 0.203125 3.039062 -0.234375 2.125 -1.109375 C 1.207031 -1.984375 0.75 -3.175781 0.75 -4.6875 C 0.75 -5.113281 0.789062 -5.566406 0.875 -6.046875 C 1.09375 -7.296875 1.539062 -8.390625 2.21875 -9.328125 C 2.894531 -10.265625 3.726562 -10.984375 4.71875 -11.484375 C 5.707031 -11.992188 6.78125 -12.25 7.9375 -12.25 Z M 10.71875 -6.796875 C 10.757812 -7.085938 10.78125 -7.359375 10.78125 -7.609375 C 10.78125 -8.546875 10.484375 -9.269531 9.890625 -9.78125 C 9.296875 -10.300781 8.519531 -10.5625 7.5625 -10.5625 C 6.539062 -10.5625 5.609375 -10.226562 4.765625 -9.5625 C 3.929688 -8.894531 3.367188 -7.972656 3.078125 -6.796875 Z M 10.71875 -6.796875 "/></g></g></g><g fill="#7f8c8d" fill-opacity="1"><g transform="translate(668.607298, 683.999986)"><g><path d="M 0.875 -6.078125 C 1.09375 -7.304688 1.535156 -8.382812 2.203125 -9.3125 C 2.878906 -10.25 3.695312 -10.972656 4.65625 -11.484375 C 5.625 -11.992188 6.65625 -12.25 7.75 -12.25 C 8.664062 -12.25 9.488281 -12.03125 10.21875 -11.59375 C 10.957031 -11.164062 11.484375 -10.601562 11.796875 -9.90625 L 12.90625 -16.28125 L 14.9375 -16.28125 L 12.0625 0 L 10.03125 0 L 10.453125 -2.265625 C 9.941406 -1.546875 9.25 -0.953125 8.375 -0.484375 C 7.507812 -0.0234375 6.554688 0.203125 5.515625 0.203125 C 4.578125 0.203125 3.75 0 3.03125 -0.40625 C 2.3125 -0.8125 1.75 -1.382812 1.34375 -2.125 C 0.945312 -2.875 0.75 -3.742188 0.75 -4.734375 C 0.75 -5.171875 0.789062 -5.617188 0.875 -6.078125 Z M 11.109375 -6.046875 C 11.171875 -6.359375 11.203125 -6.691406 11.203125 -7.046875 C 11.203125 -8.109375 10.878906 -8.953125 10.234375 -9.578125 C 9.597656 -10.203125 8.789062 -10.515625 7.8125 -10.515625 C 7.0625 -10.515625 6.34375 -10.335938 5.65625 -9.984375 C 4.976562 -9.628906 4.394531 -9.113281 3.90625 -8.4375 C 3.425781 -7.769531 3.109375 -6.984375 2.953125 -6.078125 C 2.890625 -5.765625 2.859375 -5.425781 2.859375 -5.0625 C 2.859375 -3.976562 3.171875 -3.125 3.796875 -2.5 C 4.429688 -1.875 5.238281 -1.5625 6.21875 -1.5625 C 6.96875 -1.5625 7.679688 -1.738281 8.359375 -2.09375 C 9.046875 -2.457031 9.632812 -2.976562 10.125 -3.65625 C 10.625 -4.34375 10.953125 -5.140625 11.109375 -6.046875 Z M 11.109375 -6.046875 "/></g></g></g><g fill="#7f8c8d" fill-opacity="1"><g transform="translate(694.431462, 683.999986)"><g><path d="M 5.296875 -15.328125 L 2.578125 0 L 0.578125 0 L 3.296875 -15.328125 Z M 5.296875 -15.328125 "/></g></g></g><g fill="#7f8c8d" fill-opacity="1"><g transform="translate(702.042492, 683.999986)"><g><path d="M 11.953125 -15.328125 L 11.65625 -13.765625 L 5.015625 -13.765625 L 4.09375 -8.515625 L 9.5 -8.515625 L 9.21875 -6.953125 L 3.8125 -6.953125 L 2.578125 0 L 0.578125 0 L 3.296875 -15.328125 Z M 11.953125 -15.328125 "/></g></g></g><g fill="#7f8c8d" fill-opacity="1"><g transform="translate(732.853094, 683.999986)"><g><path d="M 4.203125 -4.640625 C 3.546875 -4.640625 3.003906 -4.847656 2.578125 -5.265625 C 2.160156 -5.679688 1.953125 -6.207031 1.953125 -6.84375 C 1.953125 -7.394531 2.101562 -7.914062 2.40625 -8.40625 C 2.707031 -8.90625 3.109375 -9.300781 3.609375 -9.59375 C 4.109375 -9.882812 4.628906 -10.03125 5.171875 -10.03125 C 5.847656 -10.03125 6.394531 -9.820312 6.8125 -9.40625 C 7.238281 -8.988281 7.453125 -8.457031 7.453125 -7.8125 C 7.453125 -7.25 7.300781 -6.722656 7 -6.234375 C 6.707031 -5.742188 6.304688 -5.351562 5.796875 -5.0625 C 5.285156 -4.78125 4.753906 -4.640625 4.203125 -4.640625 Z M 4.203125 -4.640625 "/></g></g></g><g fill="#7f8c8d" fill-opacity="1"><g transform="translate(761.646065, 683.999986)"><g><path d="M 10.25 -3.40625 L 3.546875 -3.40625 L 1.71875 0 L -0.390625 0 L 7.828125 -15.25 L 10.140625 -15.25 L 12.984375 0 L 10.875 0 Z M 9.96875 -4.96875 L 8.5625 -12.796875 L 4.375 -4.96875 Z M 9.96875 -4.96875 "/></g></g></g><g fill="#7f8c8d" fill-opacity="1"><g transform="translate(778.671417, 683.999986)"><g><path d="M 12.625 0 L 10.625 0 L 4.75 -12.203125 L 2.578125 0 L 0.578125 0 L 3.296875 -15.359375 L 5.296875 -15.359375 L 11.203125 -3.171875 L 13.359375 -15.359375 L 15.359375 -15.359375 Z M 12.625 0 "/></g></g></g><g fill="#7f8c8d" fill-opacity="1"><g transform="translate(796.334651, 683.999986)"><g><path d="M 8.078125 -15.328125 C 10.265625 -15.328125 11.960938 -14.800781 13.171875 -13.75 C 14.378906 -12.695312 14.984375 -11.226562 14.984375 -9.34375 C 14.984375 -8.757812 14.929688 -8.191406 14.828125 -7.640625 C 14.546875 -6.066406 13.976562 -4.703125 13.125 -3.546875 C 12.269531 -2.398438 11.175781 -1.519531 9.84375 -0.90625 C 8.519531 -0.300781 7.019531 0 5.34375 0 L 0.578125 0 L 3.296875 -15.328125 Z M 5.625 -1.546875 C 7.59375 -1.546875 9.191406 -2.082031 10.421875 -3.15625 C 11.660156 -4.238281 12.445312 -5.734375 12.78125 -7.640625 C 12.863281 -8.160156 12.90625 -8.65625 12.90625 -9.125 C 12.90625 -10.582031 12.472656 -11.707031 11.609375 -12.5 C 10.742188 -13.300781 9.46875 -13.703125 7.78125 -13.703125 L 5.015625 -13.703125 L 2.859375 -1.546875 Z M 5.625 -1.546875 "/></g></g></g><g fill="#7f8c8d" fill-opacity="1"><g transform="translate(831.606999, 683.999986)"><g><path d="M 4.203125 -4.640625 C 3.546875 -4.640625 3.003906 -4.847656 2.578125 -5.265625 C 2.160156 -5.679688 1.953125 -6.207031 1.953125 -6.84375 C 1.953125 -7.394531 2.101562 -7.914062 2.40625 -8.40625 C 2.707031 -8.90625 3.109375 -9.300781 3.609375 -9.59375 C 4.109375 -9.882812 4.628906 -10.03125 5.171875 -10.03125 C 5.847656 -10.03125 6.394531 -9.820312 6.8125 -9.40625 C 7.238281 -8.988281 7.453125 -8.457031 7.453125 -7.8125 C 7.453125 -7.25 7.300781 -6.722656 7 -6.234375 C 6.707031 -5.742188 6.304688 -5.351562 5.796875 -5.0625 C 5.285156 -4.78125 4.753906 -4.640625 4.203125 -4.640625 Z M 4.203125 -4.640625 "/></g></g></g><g fill="#7f8c8d" fill-opacity="1"><g transform="translate(860.399963, 683.999986)"><g><path d="M 7.5625 0.15625 C 6.289062 0.15625 5.171875 -0.109375 4.203125 -0.640625 C 3.234375 -1.179688 2.476562 -1.9375 1.9375 -2.90625 C 1.40625 -3.875 1.140625 -4.976562 1.140625 -6.21875 C 1.140625 -7.957031 1.53125 -9.53125 2.3125 -10.9375 C 3.101562 -12.351562 4.1875 -13.46875 5.5625 -14.28125 C 6.945312 -15.101562 8.488281 -15.515625 10.1875 -15.515625 C 11.476562 -15.515625 12.609375 -15.242188 13.578125 -14.703125 C 14.554688 -14.171875 15.304688 -13.421875 15.828125 -12.453125 C 16.359375 -11.492188 16.625 -10.394531 16.625 -9.15625 C 16.625 -7.40625 16.234375 -5.820312 15.453125 -4.40625 C 14.671875 -2.988281 13.585938 -1.875 12.203125 -1.0625 C 10.828125 -0.25 9.28125 0.15625 7.5625 0.15625 Z M 7.859375 -1.65625 C 9.148438 -1.65625 10.300781 -1.988281 11.3125 -2.65625 C 12.332031 -3.320312 13.128906 -4.21875 13.703125 -5.34375 C 14.273438 -6.476562 14.5625 -7.703125 14.5625 -9.015625 C 14.5625 -10.472656 14.144531 -11.617188 13.3125 -12.453125 C 12.476562 -13.285156 11.34375 -13.703125 9.90625 -13.703125 C 8.613281 -13.703125 7.457031 -13.367188 6.4375 -12.703125 C 5.414062 -12.035156 4.625 -11.140625 4.0625 -10.015625 C 3.5 -8.898438 3.21875 -7.679688 3.21875 -6.359375 C 3.21875 -4.910156 3.628906 -3.765625 4.453125 -2.921875 C 5.285156 -2.078125 6.421875 -1.65625 7.859375 -1.65625 Z M 7.859375 -1.65625 "/></g></g></g><g fill="#7f8c8d" fill-opacity="1"><g transform="translate(879.888872, 683.999986)"><g><path d="M 8.234375 -15.328125 C 9.753906 -15.328125 10.898438 -15 11.671875 -14.34375 C 12.453125 -13.6875 12.84375 -12.804688 12.84375 -11.703125 C 12.84375 -11.523438 12.816406 -11.234375 12.765625 -10.828125 C 12.566406 -9.765625 12.09375 -8.828125 11.34375 -8.015625 C 10.601562 -7.210938 9.601562 -6.679688 8.34375 -6.421875 L 11.046875 0 L 8.640625 0 L 6.09375 -6.265625 L 3.703125 -6.265625 L 2.578125 0 L 0.578125 0 L 3.296875 -15.328125 Z M 10.6875 -10.828125 C 10.738281 -11.085938 10.765625 -11.328125 10.765625 -11.546875 C 10.765625 -12.253906 10.53125 -12.796875 10.0625 -13.171875 C 9.601562 -13.554688 8.894531 -13.75 7.9375 -13.75 L 5.015625 -13.75 L 3.984375 -7.875 L 6.9375 -7.875 C 8.019531 -7.875 8.875 -8.140625 9.5 -8.671875 C 10.132812 -9.210938 10.53125 -9.929688 10.6875 -10.828125 Z M 10.6875 -10.828125 "/></g></g></g></svg>